<svg width="1440" height="411" viewBox="0 0 1440 411" fill="none" xmlns="http://www.w3.org/2000/svg">
<g id="Group 10">
<path id="Vector 45" d="M1403 83.663C1390.51 181.283 1365.53 405.741 1365.53 522.611V552.103C1344.75 567.421 1302.38 572.953 1299.11 472.544C1295.84 372.134 1367.01 171.453 1403 83.663Z" fill="#C1FF91" stroke="#2F2F2F" stroke-width="4" stroke-linecap="round" stroke-linejoin="round"/>
<path id="Vector 46" d="M1334 92.2476C1347.93 200.919 1375.79 450.788 1375.79 580.888V613.719C1398.97 630.77 1446.23 636.929 1449.88 525.153C1453.53 413.376 1374.15 189.976 1334 92.2476Z" fill="#C1FF91" stroke="#2F2F2F" stroke-width="4" stroke-linecap="round" stroke-linejoin="round"/>
<path id="Vector 16" d="M258 82.663C245.51 180.283 220.531 404.741 220.531 521.611V551.103C199.753 566.421 157.379 571.953 154.109 471.544C150.839 371.134 222.007 170.453 258 82.663Z" fill="#C1FF91" stroke="#2F2F2F" stroke-width="4" stroke-linecap="round" stroke-linejoin="round"/>
<path id="Vector 47" d="M1174 92.663C1161.51 190.283 1136.53 414.741 1136.53 531.611V561.103C1115.75 576.421 1073.38 581.953 1070.11 481.544C1066.84 381.134 1138.01 180.453 1174 92.663Z" fill="#C1FF91" stroke="#2F2F2F" stroke-width="4" stroke-linecap="round" stroke-linejoin="round"/>
<path id="Vector 27" d="M674 93.2476C687.811 201.715 715.432 451.113 715.432 580.968V613.737C738.408 630.756 785.264 636.904 788.88 525.337C792.495 413.771 713.8 190.792 674 93.2476Z" fill="#C1FF91" stroke="#2F2F2F" stroke-width="4" stroke-linecap="round" stroke-linejoin="round"/>
<path id="Vector 10" d="M115 55.8315C102.991 149.154 78.9722 363.73 78.9722 475.455V503.649C58.9931 518.292 18.249 523.581 15.1047 427.592C11.9605 331.603 80.3915 139.756 115 55.8315Z" fill="#82CD47" stroke="#2F2F2F" stroke-width="4" stroke-linecap="round" stroke-linejoin="round"/>
<path id="Vector 49" d="M1031 65.8315C1018.99 159.154 994.972 373.73 994.972 485.455V513.649C974.993 528.292 934.249 533.581 931.105 437.592C927.96 341.603 996.391 149.756 1031 65.8315Z" fill="#82CD47" stroke="#2F2F2F" stroke-width="4" stroke-linecap="round" stroke-linejoin="round"/>
<path id="Vector 28" d="M831 63.2476C844.33 167.212 870.991 406.258 870.991 530.723V562.132C893.168 578.445 938.394 584.337 941.884 477.402C945.374 370.467 869.415 156.743 831 63.2476Z" fill="#82CD47" stroke="#2F2F2F" stroke-width="4" stroke-linecap="round" stroke-linejoin="round"/>
<path id="Vector 42" d="M370 63.3553C383.33 167.32 409.991 406.366 409.991 530.831V562.239C432.168 578.552 477.394 584.445 480.884 477.509C484.374 370.574 408.415 156.85 370 63.3553Z" fill="#82CD47" stroke="#2F2F2F" stroke-width="4" stroke-linecap="round" stroke-linejoin="round"/>
<path id="Vector 51" d="M1286 73.3553C1299.33 177.32 1325.99 416.366 1325.99 540.831V572.239C1348.17 588.552 1393.39 594.445 1396.88 487.509C1400.37 380.574 1324.42 166.85 1286 73.3553Z" fill="#82CD47" stroke="#2F2F2F" stroke-width="4" stroke-linecap="round" stroke-linejoin="round"/>
<path id="Vector 13" d="M286 126.663C294.286 190.515 310.859 337.331 310.859 413.774V433.064C324.645 443.083 352.758 446.702 354.928 381.025C357.097 315.349 309.88 184.085 286 126.663Z" fill="#82CD47" stroke="#2F2F2F" stroke-width="4" stroke-linecap="round" stroke-linejoin="round"/>
<path id="Vector 52" d="M1202 136.663C1210.29 200.515 1226.86 347.331 1226.86 423.774V443.064C1240.64 453.083 1268.76 456.702 1270.93 391.025C1273.1 325.349 1225.88 194.085 1202 136.663Z" fill="#82CD47" stroke="#2F2F2F" stroke-width="4" stroke-linecap="round" stroke-linejoin="round"/>
<path id="Vector 29" d="M643 141.248C633.633 212.467 614.898 376.223 614.898 461.487V483.003C599.315 494.178 567.534 498.214 565.082 424.959C562.629 351.705 616.005 205.295 643 141.248Z" fill="#82CD47" stroke="#2F2F2F" stroke-width="4" stroke-linecap="round" stroke-linejoin="round"/>
<path id="Vector 17" d="M57 135.663C65.2864 199.515 81.8592 346.331 81.8592 422.774V442.064C95.6447 452.083 123.758 455.702 125.928 390.025C128.097 324.349 80.8799 193.085 57 135.663Z" fill="#82CD47" stroke="#2F2F2F" stroke-width="4" stroke-linecap="round" stroke-linejoin="round"/>
<path id="Vector 54" d="M973 145.663C981.286 209.515 997.859 356.331 997.859 432.774V452.064C1011.64 462.083 1039.76 465.702 1041.93 400.025C1044.1 334.349 996.88 203.085 973 145.663Z" fill="#82CD47" stroke="#2F2F2F" stroke-width="4" stroke-linecap="round" stroke-linejoin="round"/>
<path id="Vector 30" d="M896 151.248C886.993 222.672 868.979 386.898 868.979 472.407V493.985C853.995 505.192 823.437 509.24 821.079 435.775C818.72 362.31 870.044 215.479 896 151.248Z" fill="#82CD47" stroke="#2F2F2F" stroke-width="4" stroke-linecap="round" stroke-linejoin="round"/>
<path id="Vector 43" d="M435 151.355C425.993 222.78 407.979 387.006 407.979 472.515V494.093C392.995 505.3 362.437 509.348 360.079 435.883C357.72 362.417 409.044 215.587 435 151.355Z" fill="#82CD47" stroke="#2F2F2F" stroke-width="4" stroke-linecap="round" stroke-linejoin="round"/>
<path id="Vector 56" d="M1351 161.355C1341.99 232.78 1323.98 397.006 1323.98 482.515V504.093C1308.99 515.3 1278.44 519.348 1276.08 445.883C1273.72 372.417 1325.04 225.587 1351 161.355Z" fill="#82CD47" stroke="#2F2F2F" stroke-width="4" stroke-linecap="round" stroke-linejoin="round"/>
<path id="Vector 57" d="M1259.14 66.2476C1278.31 162.683 1325.96 383.219 1363.17 493.878L1372.56 521.803C1357.63 542.966 1319 561.786 1283.91 467.761C1248.83 373.736 1252.78 160.908 1259.14 66.2476Z" fill="#C1FF91" stroke="#2F2F2F" stroke-width="4" stroke-linecap="round" stroke-linejoin="round"/>
<path id="Vector 32" d="M578.71 64.0258C557.41 171.161 504.474 416.165 463.139 539.101L452.708 570.124C469.295 593.635 512.212 614.544 551.189 510.087C590.166 405.629 585.777 169.189 578.71 64.0258Z" fill="#C1FF91" stroke="#2F2F2F" stroke-width="4" stroke-linecap="round" stroke-linejoin="round"/>
<path id="Vector 18" d="M114.139 65.2476C133.312 161.683 180.961 382.219 218.168 492.878L227.557 520.803C212.627 541.966 173.995 560.786 138.911 466.761C103.827 372.736 107.778 159.908 114.139 65.2476Z" fill="#C1FF91" stroke="#2F2F2F" stroke-width="4" stroke-linecap="round" stroke-linejoin="round"/>
<path id="Vector 59" d="M1030.14 75.2476C1049.31 171.683 1096.96 392.219 1134.17 502.878L1143.56 530.803C1128.63 551.966 1090 570.786 1054.91 476.761C1019.83 382.736 1023.78 169.908 1030.14 75.2476Z" fill="#C1FF91" stroke="#2F2F2F" stroke-width="4" stroke-linecap="round" stroke-linejoin="round"/>
<path id="Vector 33" d="M833.118 74.0244C811.817 181.159 758.882 426.164 717.546 549.1L707.115 580.123C723.702 603.634 766.62 624.542 805.597 520.085C844.573 415.628 840.184 179.188 833.118 74.0244Z" fill="#C1FF91" stroke="#2F2F2F" stroke-width="4" stroke-linecap="round" stroke-linejoin="round"/>
<path id="Vector 11" d="M-23.2062 39.2476C-4.87309 131.457 40.6874 342.328 76.2644 448.137L85.2422 474.838C70.9661 495.074 34.0274 513.069 0.480641 423.165C-33.0661 333.26 -29.2884 129.76 -23.2062 39.2476Z" fill="#82CD47" stroke="#2F2F2F" stroke-width="4" stroke-linecap="round" stroke-linejoin="round"/>
<path id="Vector 61" d="M892.794 49.2476C911.127 141.457 956.687 352.328 992.264 458.137L1001.24 484.838C986.966 505.074 950.027 523.069 916.481 433.165C882.934 343.26 886.712 139.76 892.794 49.2476Z" fill="#82CD47" stroke="#2F2F2F" stroke-width="4" stroke-linecap="round" stroke-linejoin="round"/>
<path id="Vector 34" d="M985.701 45.1398C965.333 147.58 914.718 381.847 875.194 499.395L865.22 529.059C881.08 551.54 922.117 571.532 959.386 471.652C996.654 371.773 992.458 145.694 985.701 45.1398Z" fill="#82CD47" stroke="#2F2F2F" stroke-width="4" stroke-linecap="round" stroke-linejoin="round"/>
<path id="Vector 44" d="M524.701 45.2476C504.333 147.687 453.718 381.954 414.194 499.503L404.22 529.166C420.08 551.647 461.117 571.639 498.386 471.76C535.654 371.881 531.458 145.802 524.701 45.2476Z" fill="#82CD47" stroke="#2F2F2F" stroke-width="4" stroke-linecap="round" stroke-linejoin="round"/>
<path id="Vector 63" d="M1440.7 55.2476C1420.33 157.687 1369.72 391.954 1330.19 509.503L1320.22 539.166C1336.08 561.647 1377.12 581.639 1414.39 481.76C1451.65 381.881 1447.46 155.802 1440.7 55.2476Z" fill="#82CD47" stroke="#2F2F2F" stroke-width="4" stroke-linecap="round" stroke-linejoin="round"/>
<path id="Vector 15" d="M380.724 115.169C368.163 178.345 336.948 322.82 312.573 395.314L306.422 413.607C316.203 427.472 341.511 439.801 364.495 378.204C387.479 316.607 384.891 177.182 380.724 115.169Z" fill="#82CD47" stroke="#2F2F2F" stroke-width="4" stroke-linecap="round" stroke-linejoin="round"/>
<path id="Vector 64" d="M1296.72 125.169C1284.16 188.345 1252.95 332.82 1228.57 405.314L1222.42 423.607C1232.2 437.472 1257.51 449.801 1280.5 388.204C1303.48 326.607 1300.89 187.182 1296.72 125.169Z" fill="#82CD47" stroke="#2F2F2F" stroke-width="4" stroke-linecap="round" stroke-linejoin="round"/>
<path id="Vector 35" d="M536.955 129.485C550.909 199.67 585.588 360.174 612.667 440.711L619.501 461.034C608.634 476.437 580.518 490.134 554.984 421.703C529.45 353.272 532.326 198.378 536.955 129.485Z" fill="#82CD47" stroke="#2F2F2F" stroke-width="4" stroke-linecap="round" stroke-linejoin="round"/>
<path id="Vector 21" d="M232.426 2C233.936 89.6923 239.332 291.148 248.829 395.432L251.226 421.748C241.786 436.389 220.447 443.31 210.606 353.867C200.765 264.424 221.052 82.021 232.426 2Z" fill="#82CD47" stroke="#2F2F2F" stroke-width="4" stroke-linecap="round" stroke-linejoin="round"/>
<path id="Vector 66" d="M1148.43 12C1149.94 99.6923 1155.33 301.148 1164.83 405.432L1167.23 431.748C1157.79 446.389 1136.45 453.31 1126.61 363.867C1116.77 274.424 1137.05 92.021 1148.43 12Z" fill="#82CD47" stroke="#2F2F2F" stroke-width="4" stroke-linecap="round" stroke-linejoin="round"/>
<path id="Vector 36" d="M701.706 3.75964C700.028 101.181 694.034 324.988 683.483 440.843L680.821 470.078C691.307 486.344 715.014 494.032 725.947 394.666C736.879 295.299 714.342 92.6589 701.706 3.75964Z" fill="#82CD47" stroke="#2F2F2F" stroke-width="4" stroke-linecap="round" stroke-linejoin="round"/>
<path id="Vector 22" d="M306.685 8.59814C297.895 95.8619 279.613 296.559 276.807 401.237L276.098 427.652C265.006 441.084 243.002 445.453 243.726 355.473C244.449 265.494 286 86.7316 306.685 8.59814Z" fill="#82CD47" stroke="#2F2F2F" stroke-width="4" stroke-linecap="round" stroke-linejoin="round"/>
<path id="Vector 68" d="M1222.69 18.5981C1213.89 105.862 1195.61 306.559 1192.81 411.237L1192.1 437.652C1181.01 451.084 1159 455.453 1159.73 365.473C1160.45 275.494 1202 96.7316 1222.69 18.5981Z" fill="#82CD47" stroke="#2F2F2F" stroke-width="4" stroke-linecap="round" stroke-linejoin="round"/>
<path id="Vector 37" d="M619.208 11.09C628.974 108.035 649.285 331 652.402 447.292L653.189 476.638C665.512 491.56 689.957 496.414 689.153 396.451C688.35 296.488 642.189 97.8922 619.208 11.09Z" fill="#82CD47" stroke="#2F2F2F" stroke-width="4" stroke-linecap="round" stroke-linejoin="round"/>
<path id="Vector 19" d="M151.724 124.169C139.163 187.345 107.948 331.82 83.573 404.314L77.422 422.607C87.203 436.472 112.511 448.801 135.495 387.204C158.479 325.607 155.891 186.182 151.724 124.169Z" fill="#82CD47" stroke="#2F2F2F" stroke-width="4" stroke-linecap="round" stroke-linejoin="round"/>
<path id="Vector 70" d="M1067.72 134.169C1055.16 197.345 1023.95 341.82 999.573 414.314L993.422 432.607C1003.2 446.472 1028.51 458.801 1051.5 397.204C1074.48 335.607 1071.89 196.182 1067.72 134.169Z" fill="#82CD47" stroke="#2F2F2F" stroke-width="4" stroke-linecap="round" stroke-linejoin="round"/>
<path id="Vector 38" d="M791.362 139.483C805.317 209.668 839.995 370.173 867.074 450.71L873.908 471.033C863.042 486.435 834.926 500.133 809.392 431.702C783.858 363.271 786.733 208.377 791.362 139.483Z" fill="#82CD47" stroke="#2F2F2F" stroke-width="4" stroke-linecap="round" stroke-linejoin="round"/>
<path id="Vector 20" d="M258 130.248C266.286 194.1 282.859 340.915 282.859 417.359V436.649C296.645 446.668 324.758 450.287 326.928 384.61C329.097 318.933 281.88 187.67 258 130.248Z" fill="#82CD47" stroke="#2F2F2F" stroke-width="4" stroke-linecap="round" stroke-linejoin="round"/>
<path id="Vector 72" d="M1174 140.248C1182.29 204.1 1198.86 350.915 1198.86 427.359V446.649C1212.64 456.668 1240.76 460.287 1242.93 394.61C1245.1 328.933 1197.88 197.67 1174 140.248Z" fill="#82CD47" stroke="#2F2F2F" stroke-width="4" stroke-linecap="round" stroke-linejoin="round"/>
<path id="Vector 39" d="M674 145.248C664.753 216.467 646.259 380.223 646.259 465.487V487.003C630.875 498.178 599.502 502.214 597.081 428.959C594.66 355.705 647.351 209.295 674 145.248Z" fill="#82CD47" stroke="#2F2F2F" stroke-width="4" stroke-linecap="round" stroke-linejoin="round"/>
<path id="Vector 23" d="M119.762 184.741C128.048 248.594 144.621 395.409 144.621 471.852V491.143C158.407 501.162 186.52 504.78 188.69 439.104C190.859 373.427 143.642 242.164 119.762 184.741Z" fill="#82CD47" stroke="#2F2F2F" stroke-width="4" stroke-linecap="round" stroke-linejoin="round"/>
<path id="Vector 74" d="M1035.76 194.741C1044.05 258.594 1060.62 405.409 1060.62 481.852V501.143C1074.41 511.162 1102.52 514.78 1104.69 449.104C1106.86 383.427 1059.64 252.164 1035.76 194.741Z" fill="#82CD47" stroke="#2F2F2F" stroke-width="4" stroke-linecap="round" stroke-linejoin="round"/>
<path id="Vector 40" d="M827 206.248C817.753 277.467 799.259 441.223 799.259 526.487V548.003C783.875 559.178 752.502 563.214 750.081 489.959C747.66 416.705 800.351 270.295 827 206.248Z" fill="#82CD47" stroke="#2F2F2F" stroke-width="4" stroke-linecap="round" stroke-linejoin="round"/>
<path id="Vector 24" d="M193.875 202.248C195.032 246.826 199.377 349.062 207.501 401.384L209.551 414.587C201.251 422.899 182.537 428.342 174.083 383.618C165.629 338.894 183.755 244.069 193.875 202.248Z" fill="#82CD47" stroke="#2F2F2F" stroke-width="4" stroke-linecap="round" stroke-linejoin="round"/>
<path id="Vector 76" d="M1109.87 212.248C1111.03 256.826 1115.38 359.062 1123.5 411.384L1125.55 424.587C1117.25 432.899 1098.54 438.342 1090.08 393.618C1081.63 348.894 1099.75 254.069 1109.87 212.248Z" fill="#82CD47" stroke="#2F2F2F" stroke-width="4" stroke-linecap="round" stroke-linejoin="round"/>
<path id="Vector 41" d="M744.535 226.224C743.25 275.748 738.423 389.328 729.397 447.455L727.119 462.123C736.341 471.357 757.131 477.403 766.523 427.718C775.915 378.032 755.778 272.686 744.535 226.224Z" fill="#82CD47" stroke="#2F2F2F" stroke-width="4" stroke-linecap="round" stroke-linejoin="round"/>
<g id="Group 6">
<path id="Ellipse 4" d="M446.943 39.741C455.007 32.6396 464.499 25.6521 473.363 19.1477C477.53 31.5008 480.311 43.0394 481.484 53.2552C482.741 64.1967 482.138 73.4836 479.544 80.6047C474.44 94.6156 458.944 101.836 444.933 96.7315C430.922 91.6272 423.702 76.1313 428.806 62.1205C431.36 55.1085 438.15 47.4842 446.943 39.741Z" fill="#B077FA" stroke="#2F2F2F" stroke-width="4"/>
<path id="Ellipse 8" d="M503.829 78.2649C514.435 79.994 525.858 82.8995 536.508 85.6248C529.603 96.6829 522.447 106.152 515.294 113.539C507.633 121.452 500.071 126.877 492.921 129.389C478.852 134.331 463.44 126.932 458.498 112.863C453.556 98.7944 460.955 83.3829 475.024 78.4409C482.065 75.9676 492.266 76.3796 503.829 78.2649Z" fill="#B077FA" stroke="#2F2F2F" stroke-width="4"/>
<path id="Ellipse 6" d="M449.077 167.338C457.351 174.624 467.092 181.793 476.181 188.463C480.46 175.791 483.315 163.952 484.519 153.472C485.806 142.266 485.19 132.75 482.53 125.45C477.295 111.081 461.403 103.676 447.034 108.911C432.665 114.145 425.26 130.038 430.495 144.407C433.114 151.598 440.074 159.41 449.077 167.338Z" fill="#B077FA" stroke="#2F2F2F" stroke-width="4"/>
<path id="Ellipse 5" d="M383.189 77.8801C379.647 67.7351 376.75 56.3098 374.063 45.6496C387.076 46.4416 398.812 48.212 408.717 50.9727C419.326 53.9296 427.702 57.9858 433.322 63.0713C444.379 73.0769 445.23 90.1511 435.225 101.208C425.219 112.264 408.145 113.116 397.089 103.111C391.555 98.1031 387.05 88.9419 383.189 77.8801Z" fill="#B077FA" stroke="#2F2F2F" stroke-width="4"/>
<path id="Ellipse 7" d="M385.493 134.741C381.81 145.132 378.783 156.842 375.975 167.761C389.33 167.016 401.381 165.259 411.556 162.475C422.435 159.499 431.038 155.384 436.824 150.198C448.212 139.991 449.169 122.484 438.962 111.096C428.755 99.7083 411.248 98.7511 399.86 108.958C394.161 114.067 389.5 123.434 385.493 134.741Z" fill="#B077FA" stroke="#2F2F2F" stroke-width="4"/>
<circle id="Ellipse 3" cx="447" cy="102" r="22" fill="#F3A93C" stroke="#2F2F2F" stroke-width="4"/>
</g>
<g id="Group 7">
<path id="Ellipse 4_2" d="M1065.55 96.2396C1060.36 91.6634 1054.27 87.1545 1048.5 82.9189C1045.86 90.8972 1044.1 98.3385 1043.34 104.937C1042.5 112.261 1042.91 118.411 1044.61 123.081C1047.93 132.19 1058.01 136.884 1067.11 133.566C1076.22 130.247 1080.92 120.173 1077.6 111.064C1075.94 106.503 1071.47 101.454 1065.55 96.2396Z" fill="#B077FA" stroke="#2F2F2F" stroke-width="4"/>
<path id="Ellipse 8_2" d="M1027.73 122.369C1020.9 123.484 1013.55 125.327 1006.62 127.099C1011.11 134.203 1015.74 140.286 1020.36 145.058C1025.49 150.354 1030.51 153.936 1035.2 155.583C1044.34 158.796 1054.36 153.986 1057.58 144.839C1060.79 135.692 1055.98 125.673 1046.83 122.46C1042.25 120.851 1035.52 121.1 1027.73 122.369Z" fill="#B077FA" stroke="#2F2F2F" stroke-width="4"/>
<path id="Ellipse 6_2" d="M1064.11 181.297C1058.78 185.998 1052.52 190.629 1046.6 194.977C1043.88 186.783 1042.07 179.14 1041.29 172.362C1040.43 164.86 1040.85 158.556 1042.6 153.765C1046.01 144.414 1056.35 139.595 1065.7 143.002C1075.05 146.409 1079.87 156.75 1076.46 166.101C1074.76 170.783 1070.18 175.958 1064.11 181.297Z" fill="#B077FA" stroke="#2F2F2F" stroke-width="4"/>
<path id="Ellipse 5_2" d="M1108.36 121.252C1110.64 114.715 1112.52 107.38 1114.27 100.442C1105.89 100.999 1098.33 102.168 1091.93 103.952C1084.83 105.931 1079.29 108.63 1075.6 111.965C1068.42 118.47 1067.86 129.571 1074.37 136.759C1080.87 143.947 1091.97 144.501 1099.16 137.996C1102.76 134.739 1105.75 128.702 1108.36 121.252Z" fill="#B077FA" stroke="#2F2F2F" stroke-width="4"/>
<path id="Ellipse 7_2" d="M1106.8 160.024C1109.18 166.728 1111.15 174.255 1112.98 181.369C1104.36 180.841 1096.59 179.679 1090.02 177.879C1082.73 175.886 1077.04 173.148 1073.24 169.744C1065.83 163.102 1065.21 151.709 1071.85 144.299C1078.49 136.888 1089.88 136.265 1097.29 142.907C1101 146.233 1104.1 152.409 1106.8 160.024Z" fill="#B077FA" stroke="#2F2F2F" stroke-width="4"/>
<circle id="Ellipse 3_2" cx="16.1826" cy="16.1826" r="14.1826" transform="matrix(-1 0 0 1 1082.13 121.548)" fill="#F3A93C" stroke="#2F2F2F" stroke-width="4"/>
</g>
<g id="Group 8">
<path id="Ellipse 4_3" d="M1339.55 27.2396C1334.36 22.6634 1328.27 18.1545 1322.5 13.9189C1319.86 21.8972 1318.1 29.3385 1317.34 35.9373C1316.5 43.2615 1316.91 49.4108 1318.61 54.0811C1321.93 63.1902 1332.01 67.8844 1341.11 64.5659C1350.22 61.2473 1354.92 51.1727 1351.6 42.0636C1349.94 37.5025 1345.47 32.4544 1339.55 27.2396Z" fill="#B077FA" stroke="#2F2F2F" stroke-width="4"/>
<path id="Ellipse 8_3" d="M1301.73 53.3694C1294.9 54.4836 1287.55 56.3266 1280.62 58.0988C1285.11 65.2027 1289.74 71.286 1294.36 76.058C1299.49 81.3545 1304.51 84.9361 1309.2 86.5834C1318.34 89.7965 1328.36 84.9862 1331.58 75.8393C1334.79 66.6925 1329.98 56.6728 1320.83 53.4597C1316.25 51.8509 1309.52 52.0996 1301.73 53.3694Z" fill="#B077FA" stroke="#2F2F2F" stroke-width="4"/>
<path id="Ellipse 6_3" d="M1338.11 112.297C1332.78 116.998 1326.52 121.629 1320.6 125.977C1317.88 117.783 1316.07 110.14 1315.29 103.362C1314.43 95.8599 1314.85 89.556 1316.6 84.7649C1320.01 75.4142 1330.35 70.5955 1339.7 74.002C1349.05 77.4086 1353.87 87.7504 1350.46 97.1011C1348.76 101.783 1344.18 106.958 1338.11 112.297Z" fill="#B077FA" stroke="#2F2F2F" stroke-width="4"/>
<path id="Ellipse 5_3" d="M1382.36 52.2523C1384.64 45.7148 1386.52 38.3805 1388.27 31.4416C1379.89 31.9987 1372.33 33.1683 1365.93 34.9516C1358.83 36.9309 1353.29 39.6296 1349.6 42.9648C1342.42 49.4699 1341.86 60.5706 1348.37 67.759C1354.87 74.9474 1365.97 75.5013 1373.16 68.9962C1376.76 65.739 1379.75 59.7021 1382.36 52.2523Z" fill="#B077FA" stroke="#2F2F2F" stroke-width="4"/>
<path id="Ellipse 7_3" d="M1380.8 91.0243C1383.18 97.7283 1385.15 105.255 1386.98 112.369C1378.36 111.841 1370.59 110.679 1364.02 108.879C1356.73 106.886 1351.04 104.148 1347.24 100.744C1339.83 94.1017 1339.21 82.7094 1345.85 75.2986C1352.49 67.8879 1363.88 67.2649 1371.29 73.9073C1375 77.2331 1378.1 83.4092 1380.8 91.0243Z" fill="#B077FA" stroke="#2F2F2F" stroke-width="4"/>
<circle id="Ellipse 3_3" cx="16.1826" cy="16.1826" r="14.1826" transform="matrix(-1 0 0 1 1356.13 52.5477)" fill="#F3A93C" stroke="#2F2F2F" stroke-width="4"/>
</g>
<g id="Group 9">
<path id="Ellipse 4_4" d="M105.011 111.333C108.945 114.797 113.53 118.215 117.928 121.447C119.9 115.398 121.216 109.763 121.791 104.758C122.449 99.0274 122.12 94.2607 120.812 90.6703C118.28 83.7211 110.594 80.1399 103.645 82.6716C96.6958 85.2033 93.1147 92.8891 95.6464 99.8383C96.9146 103.319 100.354 107.232 105.011 111.333Z" fill="#B077FA" stroke="#2F2F2F" stroke-width="4"/>
<path id="Ellipse 8_4" d="M134.432 90.6646C139.606 89.8211 145.156 88.4443 150.445 87.0948C147.02 81.7337 143.498 77.1412 139.994 73.5218C135.981 69.378 132.087 66.6088 128.482 65.3424C121.504 62.8912 113.86 66.5609 111.409 73.5389C108.958 80.5169 112.628 88.1608 119.606 90.612C123.101 91.8399 128.308 91.6631 134.432 90.6646Z" fill="#B077FA" stroke="#2F2F2F" stroke-width="4"/>
<path id="Ellipse 6_4" d="M106.143 45.0198C110.189 41.4575 114.906 37.9442 119.425 34.6233C121.455 40.8419 122.811 46.6366 123.402 51.782C124.076 57.6526 123.739 62.541 122.397 66.2265C119.796 73.3659 111.9 77.045 104.76 74.4441C97.6209 71.8431 93.9417 63.947 96.5427 56.8076C97.8455 53.2314 101.375 49.2186 106.143 45.0198Z" fill="#B077FA" stroke="#2F2F2F" stroke-width="4"/>
<path id="Ellipse 5_4" d="M71.4393 92.1044C69.7118 97.0537 68.2732 102.588 66.9354 107.88C73.2812 107.428 78.9976 106.525 83.8506 105.172C89.4067 103.624 93.6984 101.523 96.5317 98.959C102.016 93.9963 102.438 85.5277 97.4755 80.0438C92.5129 74.5599 84.0443 74.1374 78.5604 79.1C75.8133 81.586 73.4841 86.2461 71.4393 92.1044Z" fill="#B077FA" stroke="#2F2F2F" stroke-width="4"/>
<path id="Ellipse 7_4" d="M72.6611 61.303C70.8605 56.2225 69.3555 50.5368 67.9553 45.1062C74.483 45.5362 80.3658 46.4352 85.3614 47.8019C91.0611 49.3612 95.473 51.4934 98.3938 54.1114C104.052 59.1829 104.528 67.8811 99.4561 73.5393C94.3846 79.1975 85.6864 79.6731 80.0282 74.6016C77.1939 72.0612 74.7834 67.2913 72.6611 61.303Z" fill="#B077FA" stroke="#2F2F2F" stroke-width="4"/>
<circle id="Ellipse 3_4" cx="12.7379" cy="12.7379" r="10.7379" transform="matrix(1 0 0 -1 91.6831 91.7316)" fill="#F3A93C" stroke="#2F2F2F" stroke-width="4"/>
</g>
</g>
</svg>
