<svg width="1440" height="411" viewBox="0 0 1440 411" fill="none" xmlns="http://www.w3.org/2000/svg">
<path d="M1395 83.663C1382.51 181.283 1357.53 405.741 1357.53 522.611V552.103C1336.75 567.421 1294.38 572.953 1291.11 472.544C1287.84 372.134 1359.01 171.453 1395 83.663Z" fill="#C1FF91" stroke="#2F2F2F" stroke-width="4" stroke-linecap="round" stroke-linejoin="round"/>
<path d="M1326 92.2476C1339.93 200.919 1367.79 450.788 1367.79 580.888V613.719C1390.97 630.77 1438.23 636.929 1441.88 525.153C1445.53 413.376 1366.15 189.976 1326 92.2476Z" fill="#C1FF91" stroke="#2F2F2F" stroke-width="4" stroke-linecap="round" stroke-linejoin="round"/>
<path d="M250 82.663C237.51 180.283 212.531 404.741 212.531 521.611V551.103C191.753 566.421 149.379 571.953 146.109 471.544C142.839 371.134 214.007 170.453 250 82.663Z" fill="#C1FF91" stroke="#2F2F2F" stroke-width="4" stroke-linecap="round" stroke-linejoin="round"/>
<path d="M1166 92.663C1153.51 190.283 1128.53 414.741 1128.53 531.611V561.103C1107.75 576.421 1065.38 581.953 1062.11 481.544C1058.84 381.134 1130.01 180.453 1166 92.663Z" fill="#C1FF91" stroke="#2F2F2F" stroke-width="4" stroke-linecap="round" stroke-linejoin="round"/>
<path d="M666 93.2476C679.811 201.715 707.432 451.113 707.432 580.968V613.737C730.408 630.756 777.264 636.904 780.88 525.337C784.495 413.771 705.8 190.792 666 93.2476Z" fill="#C1FF91" stroke="#2F2F2F" stroke-width="4" stroke-linecap="round" stroke-linejoin="round"/>
<path d="M107 55.8315C94.9907 149.154 70.9722 363.73 70.9722 475.455V503.649C50.9931 518.292 10.249 523.581 7.10474 427.592C3.96049 331.603 72.3915 139.756 107 55.8315Z" fill="#82CD47" stroke="#2F2F2F" stroke-width="4" stroke-linecap="round" stroke-linejoin="round"/>
<path d="M1023 65.8315C1010.99 159.154 986.972 373.73 986.972 485.455V513.649C966.993 528.292 926.249 533.581 923.105 437.592C919.96 341.603 988.391 149.756 1023 65.8315Z" fill="#82CD47" stroke="#2F2F2F" stroke-width="4" stroke-linecap="round" stroke-linejoin="round"/>
<path d="M823 63.2476C836.33 167.212 862.991 406.258 862.991 530.723V562.132C885.168 578.445 930.394 584.337 933.884 477.402C937.374 370.467 861.415 156.743 823 63.2476Z" fill="#82CD47" stroke="#2F2F2F" stroke-width="4" stroke-linecap="round" stroke-linejoin="round"/>
<path d="M362 63.3553C375.33 167.32 401.991 406.366 401.991 530.831V562.239C424.168 578.552 469.394 584.445 472.884 477.509C476.374 370.574 400.415 156.85 362 63.3553Z" fill="#82CD47" stroke="#2F2F2F" stroke-width="4" stroke-linecap="round" stroke-linejoin="round"/>
<path d="M1278 73.3553C1291.33 177.32 1317.99 416.366 1317.99 540.831V572.239C1340.17 588.552 1385.39 594.445 1388.88 487.509C1392.37 380.574 1316.42 166.85 1278 73.3553Z" fill="#82CD47" stroke="#2F2F2F" stroke-width="4" stroke-linecap="round" stroke-linejoin="round"/>
<path d="M278 126.663C286.286 190.515 302.859 337.331 302.859 413.774V433.064C316.645 443.083 344.758 446.702 346.928 381.025C349.097 315.349 301.88 184.085 278 126.663Z" fill="#82CD47" stroke="#2F2F2F" stroke-width="4" stroke-linecap="round" stroke-linejoin="round"/>
<path d="M1194 136.663C1202.29 200.515 1218.86 347.331 1218.86 423.774V443.064C1232.64 453.083 1260.76 456.702 1262.93 391.025C1265.1 325.349 1217.88 194.085 1194 136.663Z" fill="#82CD47" stroke="#2F2F2F" stroke-width="4" stroke-linecap="round" stroke-linejoin="round"/>
<path d="M635 141.248C625.633 212.467 606.898 376.223 606.898 461.487V483.003C591.315 494.178 559.534 498.214 557.082 424.959C554.629 351.705 608.005 205.295 635 141.248Z" fill="#82CD47" stroke="#2F2F2F" stroke-width="4" stroke-linecap="round" stroke-linejoin="round"/>
<path d="M49 135.663C57.2864 199.515 73.8592 346.331 73.8592 422.774V442.064C87.6447 452.083 115.758 455.702 117.928 390.025C120.097 324.349 72.8799 193.085 49 135.663Z" fill="#82CD47" stroke="#2F2F2F" stroke-width="4" stroke-linecap="round" stroke-linejoin="round"/>
<path d="M965 145.663C973.286 209.515 989.859 356.331 989.859 432.774V452.064C1003.64 462.083 1031.76 465.702 1033.93 400.025C1036.1 334.349 988.88 203.085 965 145.663Z" fill="#82CD47" stroke="#2F2F2F" stroke-width="4" stroke-linecap="round" stroke-linejoin="round"/>
<path d="M888 151.248C878.993 222.672 860.979 386.898 860.979 472.407V493.985C845.995 505.192 815.437 509.24 813.079 435.775C810.72 362.31 862.044 215.479 888 151.248Z" fill="#82CD47" stroke="#2F2F2F" stroke-width="4" stroke-linecap="round" stroke-linejoin="round"/>
<path d="M427 151.355C417.993 222.78 399.979 387.006 399.979 472.515V494.093C384.995 505.3 354.437 509.348 352.079 435.883C349.72 362.417 401.044 215.587 427 151.355Z" fill="#82CD47" stroke="#2F2F2F" stroke-width="4" stroke-linecap="round" stroke-linejoin="round"/>
<path d="M1343 161.355C1333.99 232.78 1315.98 397.006 1315.98 482.515V504.093C1300.99 515.3 1270.44 519.348 1268.08 445.883C1265.72 372.417 1317.04 225.587 1343 161.355Z" fill="#82CD47" stroke="#2F2F2F" stroke-width="4" stroke-linecap="round" stroke-linejoin="round"/>
<path d="M1251.14 66.2476C1270.31 162.683 1317.96 383.219 1355.17 493.878L1364.56 521.803C1349.63 542.966 1311 561.786 1275.91 467.761C1240.83 373.736 1244.78 160.908 1251.14 66.2476Z" fill="#C1FF91" stroke="#2F2F2F" stroke-width="4" stroke-linecap="round" stroke-linejoin="round"/>
<path d="M570.71 64.0258C549.41 171.161 496.474 416.165 455.139 539.101L444.708 570.124C461.295 593.635 504.212 614.544 543.189 510.087C582.166 405.629 577.777 169.189 570.71 64.0258Z" fill="#C1FF91" stroke="#2F2F2F" stroke-width="4" stroke-linecap="round" stroke-linejoin="round"/>
<path d="M106.139 65.2476C125.312 161.683 172.961 382.219 210.168 492.878L219.557 520.803C204.627 541.966 165.995 560.786 130.911 466.761C95.8267 372.736 99.7776 159.908 106.139 65.2476Z" fill="#C1FF91" stroke="#2F2F2F" stroke-width="4" stroke-linecap="round" stroke-linejoin="round"/>
<path d="M1022.14 75.2476C1041.31 171.683 1088.96 392.219 1126.17 502.878L1135.56 530.803C1120.63 551.966 1082 570.786 1046.91 476.761C1011.83 382.736 1015.78 169.908 1022.14 75.2476Z" fill="#C1FF91" stroke="#2F2F2F" stroke-width="4" stroke-linecap="round" stroke-linejoin="round"/>
<path d="M825.118 74.0244C803.817 181.159 750.882 426.164 709.546 549.1L699.115 580.123C715.702 603.634 758.62 624.542 797.597 520.085C836.573 415.628 832.184 179.188 825.118 74.0244Z" fill="#C1FF91" stroke="#2F2F2F" stroke-width="4" stroke-linecap="round" stroke-linejoin="round"/>
<path d="M-31.2062 39.2476C-12.8731 131.457 32.6874 342.328 68.2644 448.137L77.2422 474.838C62.9661 495.074 26.0274 513.069 -7.51936 423.165C-41.0661 333.26 -37.2884 129.76 -31.2062 39.2476Z" fill="#82CD47" stroke="#2F2F2F" stroke-width="4" stroke-linecap="round" stroke-linejoin="round"/>
<path d="M884.794 49.2476C903.127 141.457 948.687 352.328 984.264 458.137L993.242 484.838C978.966 505.074 942.027 523.069 908.481 433.165C874.934 343.26 878.712 139.76 884.794 49.2476Z" fill="#82CD47" stroke="#2F2F2F" stroke-width="4" stroke-linecap="round" stroke-linejoin="round"/>
<path d="M977.701 45.1398C957.333 147.58 906.718 381.847 867.194 499.395L857.22 529.059C873.08 551.54 914.117 571.532 951.386 471.652C988.654 371.773 984.458 145.694 977.701 45.1398Z" fill="#82CD47" stroke="#2F2F2F" stroke-width="4" stroke-linecap="round" stroke-linejoin="round"/>
<path d="M516.701 45.2476C496.333 147.687 445.718 381.954 406.194 499.503L396.22 529.166C412.08 551.647 453.117 571.639 490.386 471.76C527.654 371.881 523.458 145.802 516.701 45.2476Z" fill="#82CD47" stroke="#2F2F2F" stroke-width="4" stroke-linecap="round" stroke-linejoin="round"/>
<path d="M1432.7 55.2476C1412.33 157.687 1361.72 391.954 1322.19 509.503L1312.22 539.166C1328.08 561.647 1369.12 581.639 1406.39 481.76C1443.65 381.881 1439.46 155.802 1432.7 55.2476Z" fill="#82CD47" stroke="#2F2F2F" stroke-width="4" stroke-linecap="round" stroke-linejoin="round"/>
<path d="M372.724 115.169C360.163 178.345 328.948 322.82 304.573 395.314L298.422 413.607C308.203 427.472 333.511 439.801 356.495 378.204C379.479 316.607 376.891 177.182 372.724 115.169Z" fill="#82CD47" stroke="#2F2F2F" stroke-width="4" stroke-linecap="round" stroke-linejoin="round"/>
<path d="M1288.72 125.169C1276.16 188.345 1244.95 332.82 1220.57 405.314L1214.42 423.607C1224.2 437.472 1249.51 449.801 1272.5 388.204C1295.48 326.607 1292.89 187.182 1288.72 125.169Z" fill="#82CD47" stroke="#2F2F2F" stroke-width="4" stroke-linecap="round" stroke-linejoin="round"/>
<path d="M528.955 129.485C542.909 199.67 577.588 360.174 604.667 440.711L611.501 461.034C600.634 476.437 572.518 490.134 546.984 421.703C521.45 353.272 524.326 198.378 528.955 129.485Z" fill="#82CD47" stroke="#2F2F2F" stroke-width="4" stroke-linecap="round" stroke-linejoin="round"/>
<path d="M224.426 2C225.936 89.6923 231.332 291.148 240.829 395.432L243.226 421.748C233.786 436.389 212.447 443.31 202.606 353.867C192.765 264.424 213.052 82.021 224.426 2Z" fill="#82CD47" stroke="#2F2F2F" stroke-width="4" stroke-linecap="round" stroke-linejoin="round"/>
<path d="M1140.43 12C1141.94 99.6923 1147.33 301.148 1156.83 405.432L1159.23 431.748C1149.79 446.389 1128.45 453.31 1118.61 363.867C1108.77 274.424 1129.05 92.021 1140.43 12Z" fill="#82CD47" stroke="#2F2F2F" stroke-width="4" stroke-linecap="round" stroke-linejoin="round"/>
<path d="M693.706 3.75964C692.028 101.181 686.034 324.988 675.483 440.843L672.821 470.078C683.307 486.344 707.014 494.032 717.947 394.666C728.879 295.299 706.342 92.6589 693.706 3.75964Z" fill="#82CD47" stroke="#2F2F2F" stroke-width="4" stroke-linecap="round" stroke-linejoin="round"/>
<path d="M298.685 8.59814C289.895 95.8619 271.613 296.559 268.807 401.237L268.098 427.652C257.006 441.084 235.002 445.453 235.726 355.473C236.449 265.494 278 86.7316 298.685 8.59814Z" fill="#82CD47" stroke="#2F2F2F" stroke-width="4" stroke-linecap="round" stroke-linejoin="round"/>
<path d="M1214.69 18.5981C1205.89 105.862 1187.61 306.559 1184.81 411.237L1184.1 437.652C1173.01 451.084 1151 455.453 1151.73 365.473C1152.45 275.494 1194 96.7316 1214.69 18.5981Z" fill="#82CD47" stroke="#2F2F2F" stroke-width="4" stroke-linecap="round" stroke-linejoin="round"/>
<path d="M611.208 11.09C620.974 108.035 641.285 331 644.402 447.292L645.189 476.638C657.512 491.56 681.957 496.414 681.153 396.451C680.35 296.488 634.189 97.8922 611.208 11.09Z" fill="#82CD47" stroke="#2F2F2F" stroke-width="4" stroke-linecap="round" stroke-linejoin="round"/>
<path d="M143.724 124.169C131.163 187.345 99.9481 331.82 75.573 404.314L69.422 422.607C79.203 436.472 104.511 448.801 127.495 387.204C150.479 325.607 147.891 186.182 143.724 124.169Z" fill="#82CD47" stroke="#2F2F2F" stroke-width="4" stroke-linecap="round" stroke-linejoin="round"/>
<path d="M1059.72 134.169C1047.16 197.345 1015.95 341.82 991.573 414.314L985.422 432.607C995.203 446.472 1020.51 458.801 1043.5 397.204C1066.48 335.607 1063.89 196.182 1059.72 134.169Z" fill="#82CD47" stroke="#2F2F2F" stroke-width="4" stroke-linecap="round" stroke-linejoin="round"/>
<path d="M783.362 139.483C797.317 209.668 831.995 370.173 859.074 450.71L865.908 471.033C855.042 486.435 826.926 500.133 801.392 431.702C775.858 363.271 778.733 208.377 783.362 139.483Z" fill="#82CD47" stroke="#2F2F2F" stroke-width="4" stroke-linecap="round" stroke-linejoin="round"/>
<path d="M250 130.248C258.286 194.1 274.859 340.915 274.859 417.359V436.649C288.645 446.668 316.758 450.287 318.928 384.61C321.097 318.933 273.88 187.67 250 130.248Z" fill="#82CD47" stroke="#2F2F2F" stroke-width="4" stroke-linecap="round" stroke-linejoin="round"/>
<path d="M1166 140.248C1174.29 204.1 1190.86 350.915 1190.86 427.359V446.649C1204.64 456.668 1232.76 460.287 1234.93 394.61C1237.1 328.933 1189.88 197.67 1166 140.248Z" fill="#82CD47" stroke="#2F2F2F" stroke-width="4" stroke-linecap="round" stroke-linejoin="round"/>
<path d="M666 145.248C656.753 216.467 638.259 380.223 638.259 465.487V487.003C622.875 498.178 591.502 502.214 589.081 428.959C586.66 355.705 639.351 209.295 666 145.248Z" fill="#82CD47" stroke="#2F2F2F" stroke-width="4" stroke-linecap="round" stroke-linejoin="round"/>
<path d="M111.762 184.741C120.048 248.594 136.621 395.409 136.621 471.852V491.143C150.407 501.162 178.52 504.78 180.69 439.104C182.859 373.427 135.642 242.164 111.762 184.741Z" fill="#82CD47" stroke="#2F2F2F" stroke-width="4" stroke-linecap="round" stroke-linejoin="round"/>
<path d="M1027.76 194.741C1036.05 258.594 1052.62 405.409 1052.62 481.852V501.143C1066.41 511.162 1094.52 514.78 1096.69 449.104C1098.86 383.427 1051.64 252.164 1027.76 194.741Z" fill="#82CD47" stroke="#2F2F2F" stroke-width="4" stroke-linecap="round" stroke-linejoin="round"/>
<path d="M819 206.248C809.753 277.467 791.259 441.223 791.259 526.487V548.003C775.875 559.178 744.502 563.214 742.081 489.959C739.66 416.705 792.351 270.295 819 206.248Z" fill="#82CD47" stroke="#2F2F2F" stroke-width="4" stroke-linecap="round" stroke-linejoin="round"/>
<path d="M185.875 202.248C187.032 246.826 191.377 349.062 199.501 401.384L201.551 414.587C193.251 422.899 174.537 428.342 166.083 383.618C157.629 338.894 175.755 244.069 185.875 202.248Z" fill="#82CD47" stroke="#2F2F2F" stroke-width="4" stroke-linecap="round" stroke-linejoin="round"/>
<path d="M1101.87 212.248C1103.03 256.826 1107.38 359.062 1115.5 411.384L1117.55 424.587C1109.25 432.899 1090.54 438.342 1082.08 393.618C1073.63 348.894 1091.75 254.069 1101.87 212.248Z" fill="#82CD47" stroke="#2F2F2F" stroke-width="4" stroke-linecap="round" stroke-linejoin="round"/>
<path d="M736.535 226.224C735.25 275.748 730.423 389.328 721.397 447.455L719.119 462.123C728.341 471.357 749.131 477.403 758.523 427.718C767.915 378.032 747.778 272.686 736.535 226.224Z" fill="#82CD47" stroke="#2F2F2F" stroke-width="4" stroke-linecap="round" stroke-linejoin="round"/>
<path d="M438.943 39.741C447.007 32.6396 456.499 25.6521 465.363 19.1477C469.53 31.5008 472.311 43.0394 473.484 53.2552C474.741 64.1967 474.138 73.4836 471.544 80.6047C466.44 94.6156 450.944 101.836 436.933 96.7315C422.922 91.6272 415.702 76.1313 420.806 62.1205C423.36 55.1085 430.15 47.4842 438.943 39.741Z" fill="#FFC0D8" stroke="#2F2F2F" stroke-width="4"/>
<path d="M495.829 78.2649C506.435 79.994 517.858 82.8995 528.508 85.6248C521.603 96.6829 514.447 106.152 507.294 113.539C499.633 121.452 492.071 126.877 484.921 129.389C470.852 134.331 455.44 126.932 450.498 112.863C445.556 98.7944 452.955 83.3829 467.024 78.4409C474.065 75.9676 484.266 76.3796 495.829 78.2649Z" fill="#FFC0D8" stroke="#2F2F2F" stroke-width="4"/>
<path d="M441.077 167.338C449.351 174.624 459.092 181.793 468.181 188.463C472.46 175.791 475.315 163.952 476.519 153.472C477.806 142.266 477.19 132.75 474.53 125.45C469.295 111.081 453.403 103.676 439.034 108.911C424.665 114.145 417.26 130.038 422.495 144.407C425.114 151.598 432.074 159.41 441.077 167.338Z" fill="#FFC0D8" stroke="#2F2F2F" stroke-width="4"/>
<path d="M375.189 77.8801C371.647 67.7351 368.75 56.3098 366.063 45.6496C379.076 46.4416 390.812 48.212 400.717 50.9727C411.326 53.9296 419.702 57.9858 425.322 63.0713C436.379 73.0769 437.23 90.1511 427.225 101.208C417.219 112.264 400.145 113.116 389.089 103.111C383.555 98.1031 379.05 88.9419 375.189 77.8801Z" fill="#FFC0D8" stroke="#2F2F2F" stroke-width="4"/>
<path d="M377.493 134.741C373.81 145.132 370.783 156.842 367.975 167.761C381.33 167.016 393.381 165.259 403.556 162.475C414.435 159.499 423.038 155.384 428.824 150.198C440.212 139.991 441.169 122.484 430.962 111.096C420.755 99.7083 403.248 98.7511 391.86 108.958C386.161 114.067 381.5 123.434 377.493 134.741Z" fill="#FFC0D8" stroke="#2F2F2F" stroke-width="4"/>
<circle cx="439" cy="102" r="22" fill="#F3A93C" stroke="#2F2F2F" stroke-width="4"/>
<path d="M1057.55 96.2396C1052.36 91.6634 1046.27 87.1545 1040.5 82.9189C1037.86 90.8972 1036.1 98.3385 1035.34 104.937C1034.5 112.261 1034.91 118.411 1036.61 123.081C1039.93 132.19 1050.01 136.884 1059.11 133.566C1068.22 130.247 1072.92 120.173 1069.6 111.064C1067.94 106.503 1063.47 101.454 1057.55 96.2396Z" fill="#FFC0D8" stroke="#2F2F2F" stroke-width="4"/>
<path d="M1019.73 122.369C1012.9 123.484 1005.55 125.327 998.618 127.099C1003.11 134.203 1007.74 140.286 1012.36 145.058C1017.49 150.354 1022.51 153.936 1027.2 155.583C1036.34 158.796 1046.36 153.986 1049.58 144.839C1052.79 135.692 1047.98 125.673 1038.83 122.46C1034.25 120.851 1027.52 121.1 1019.73 122.369Z" fill="#FFC0D8" stroke="#2F2F2F" stroke-width="4"/>
<path d="M1056.11 181.297C1050.78 185.998 1044.52 190.629 1038.6 194.977C1035.88 186.783 1034.07 179.14 1033.29 172.362C1032.43 164.86 1032.85 158.556 1034.6 153.765C1038.01 144.414 1048.35 139.595 1057.7 143.002C1067.05 146.409 1071.87 156.75 1068.46 166.101C1066.76 170.783 1062.18 175.958 1056.11 181.297Z" fill="#FFC0D8" stroke="#2F2F2F" stroke-width="4"/>
<path d="M1100.36 121.252C1102.64 114.715 1104.52 107.38 1106.27 100.442C1097.89 100.999 1090.33 102.168 1083.93 103.952C1076.83 105.931 1071.29 108.63 1067.6 111.965C1060.42 118.47 1059.86 129.571 1066.37 136.759C1072.87 143.947 1083.97 144.501 1091.16 137.996C1094.76 134.739 1097.75 128.702 1100.36 121.252Z" fill="#FFC0D8" stroke="#2F2F2F" stroke-width="4"/>
<path d="M1098.8 160.024C1101.18 166.728 1103.15 174.255 1104.98 181.369C1096.36 180.841 1088.59 179.679 1082.02 177.879C1074.73 175.886 1069.04 173.148 1065.24 169.744C1057.83 163.102 1057.21 151.709 1063.85 144.299C1070.49 136.888 1081.88 136.265 1089.29 142.907C1093 146.233 1096.1 152.409 1098.8 160.024Z" fill="#FFC0D8" stroke="#2F2F2F" stroke-width="4"/>
<circle cx="16.1826" cy="16.1826" r="14.1826" transform="matrix(-1 0 0 1 1074.13 121.548)" fill="#F3A93C" stroke="#2F2F2F" stroke-width="4"/>
<path d="M1331.55 27.2396C1326.36 22.6634 1320.27 18.1545 1314.5 13.9189C1311.86 21.8972 1310.1 29.3385 1309.34 35.9373C1308.5 43.2615 1308.91 49.4108 1310.61 54.0811C1313.93 63.1902 1324.01 67.8844 1333.11 64.5659C1342.22 61.2473 1346.92 51.1727 1343.6 42.0636C1341.94 37.5025 1337.47 32.4544 1331.55 27.2396Z" fill="#FFC0D8" stroke="#2F2F2F" stroke-width="4"/>
<path d="M1293.73 53.3694C1286.9 54.4836 1279.55 56.3266 1272.62 58.0988C1277.11 65.2027 1281.74 71.286 1286.36 76.058C1291.49 81.3545 1296.51 84.9361 1301.2 86.5834C1310.34 89.7965 1320.36 84.9862 1323.58 75.8393C1326.79 66.6925 1321.98 56.6728 1312.83 53.4597C1308.25 51.8509 1301.52 52.0996 1293.73 53.3694Z" fill="#FFC0D8" stroke="#2F2F2F" stroke-width="4"/>
<path d="M1330.11 112.297C1324.78 116.998 1318.52 121.629 1312.6 125.977C1309.88 117.783 1308.07 110.14 1307.29 103.362C1306.43 95.8599 1306.85 89.556 1308.6 84.7649C1312.01 75.4142 1322.35 70.5955 1331.7 74.002C1341.05 77.4086 1345.87 87.7504 1342.46 97.1011C1340.76 101.783 1336.18 106.958 1330.11 112.297Z" fill="#FFC0D8" stroke="#2F2F2F" stroke-width="4"/>
<path d="M1374.36 52.2523C1376.64 45.7148 1378.52 38.3805 1380.27 31.4416C1371.89 31.9987 1364.33 33.1683 1357.93 34.9516C1350.83 36.9309 1345.29 39.6296 1341.6 42.9648C1334.42 49.4699 1333.86 60.5706 1340.37 67.759C1346.87 74.9474 1357.97 75.5013 1365.16 68.9962C1368.76 65.739 1371.75 59.7021 1374.36 52.2523Z" fill="#FFC0D8" stroke="#2F2F2F" stroke-width="4"/>
<path d="M1372.8 91.0243C1375.18 97.7283 1377.15 105.255 1378.98 112.369C1370.36 111.841 1362.59 110.679 1356.02 108.879C1348.73 106.886 1343.04 104.148 1339.24 100.744C1331.83 94.1017 1331.21 82.7094 1337.85 75.2986C1344.49 67.8879 1355.88 67.2649 1363.29 73.9073C1367 77.2331 1370.1 83.4092 1372.8 91.0243Z" fill="#FFC0D8" stroke="#2F2F2F" stroke-width="4"/>
<circle cx="16.1826" cy="16.1826" r="14.1826" transform="matrix(-1 0 0 1 1348.13 52.5477)" fill="#F3A93C" stroke="#2F2F2F" stroke-width="4"/>
<path d="M97.0109 111.333C100.945 114.797 105.53 118.215 109.928 121.447C111.9 115.398 113.216 109.763 113.791 104.758C114.449 99.0274 114.12 94.2607 112.812 90.6703C110.28 83.7211 102.594 80.1399 95.6451 82.6716C88.6958 85.2033 85.1147 92.8891 87.6464 99.8383C88.9146 103.319 92.3543 107.232 97.0109 111.333Z" fill="#FFC0D8" stroke="#2F2F2F" stroke-width="4"/>
<path d="M126.432 90.6646C131.606 89.8211 137.156 88.4443 142.445 87.0948C139.02 81.7337 135.498 77.1412 131.994 73.5218C127.981 69.378 124.087 66.6088 120.482 65.3424C113.504 62.8912 105.86 66.5609 103.409 73.5389C100.958 80.5169 104.628 88.1608 111.606 90.612C115.101 91.8399 120.308 91.6631 126.432 90.6646Z" fill="#FFC0D8" stroke="#2F2F2F" stroke-width="4"/>
<path d="M98.1435 45.0198C102.189 41.4575 106.906 37.9442 111.425 34.6233C113.455 40.8419 114.811 46.6366 115.402 51.782C116.076 57.6526 115.739 62.541 114.397 66.2265C111.796 73.3659 103.9 77.045 96.7603 74.4441C89.6209 71.8431 85.9417 63.947 88.5427 56.8076C89.8455 53.2314 93.3754 49.2186 98.1435 45.0198Z" fill="#FFC0D8" stroke="#2F2F2F" stroke-width="4"/>
<path d="M63.4393 92.1044C61.7118 97.0537 60.2732 102.588 58.9354 107.88C65.2812 107.428 70.9976 106.525 75.8506 105.172C81.4067 103.624 85.6984 101.523 88.5317 98.959C94.0156 93.9963 94.4382 85.5277 89.4755 80.0438C84.5129 74.5599 76.0443 74.1374 70.5604 79.1C67.8133 81.586 65.4841 86.2461 63.4393 92.1044Z" fill="#FFC0D8" stroke="#2F2F2F" stroke-width="4"/>
<path d="M64.6611 61.303C62.8605 56.2225 61.3555 50.5368 59.9553 45.1062C66.483 45.5362 72.3658 46.4352 77.3614 47.8019C83.0611 49.3612 87.473 51.4934 90.3938 54.1114C96.052 59.1829 96.5276 67.8811 91.4561 73.5393C86.3846 79.1975 77.6864 79.6731 72.0282 74.6016C69.1939 72.0612 66.7834 67.2913 64.6611 61.303Z" fill="#FFC0D8" stroke="#2F2F2F" stroke-width="4"/>
<circle cx="12.7379" cy="12.7379" r="10.7379" transform="matrix(1 0 0 -1 83.6831 91.7316)" fill="#F3A93C" stroke="#2F2F2F" stroke-width="4"/>
</svg>
