<?xml version="1.0" encoding="UTF-8"?>
<svg id="Layer_2" data-name="Layer 2" xmlns="http://www.w3.org/2000/svg" xmlns:xlink="http://www.w3.org/1999/xlink" viewBox="0 0 246.24 440.79">
  <defs>
    <style>
      .cls-1 {
        fill: none;
        stroke: #333132;
        stroke-linecap: round;
        stroke-linejoin: round;
      }

      .cls-2 {
        fill: url(#linear-gradient);
      }

      .cls-3 {
        fill: #333132;
      }

      .cls-4 {
        fill: #d7b7a1;
      }

      .cls-5 {
        fill: #d97327;
      }

      .cls-6 {
        fill: #c25628;
      }

      .cls-7 {
        fill: #d7b69e;
      }

      .cls-8 {
        fill: #d0c4b1;
      }

      .cls-9 {
        fill: #dbc19a;
      }

      .cls-10 {
        fill: #c8a176;
      }

      .cls-11 {
        fill: #81441d;
      }

      .cls-12 {
        fill: url(#linear-gradient-8);
      }

      .cls-13 {
        fill: url(#linear-gradient-9);
      }

      .cls-14 {
        fill: url(#linear-gradient-3);
      }

      .cls-15 {
        fill: url(#linear-gradient-4);
      }

      .cls-16 {
        fill: url(#linear-gradient-2);
      }

      .cls-17 {
        fill: url(#linear-gradient-6);
      }

      .cls-18 {
        fill: url(#linear-gradient-7);
      }

      .cls-19 {
        fill: url(#linear-gradient-5);
      }

      .cls-20 {
        fill: url(#linear-gradient-14);
      }

      .cls-21 {
        fill: url(#linear-gradient-18);
      }

      .cls-22 {
        fill: url(#linear-gradient-20);
      }

      .cls-23 {
        fill: url(#linear-gradient-21);
      }

      .cls-24 {
        fill: url(#linear-gradient-15);
      }

      .cls-25 {
        fill: url(#linear-gradient-19);
      }

      .cls-26 {
        fill: url(#linear-gradient-16);
      }

      .cls-27 {
        fill: url(#linear-gradient-17);
      }

      .cls-28 {
        fill: url(#linear-gradient-13);
      }

      .cls-29 {
        fill: url(#linear-gradient-12);
      }

      .cls-30 {
        fill: url(#linear-gradient-10);
      }

      .cls-31 {
        fill: url(#linear-gradient-11);
      }
    </style>
    <linearGradient id="linear-gradient" x1="97.53" y1="107.11" x2="141.38" y2="107.11" gradientUnits="userSpaceOnUse">
      <stop offset="0" stop-color="#231f20"/>
      <stop offset=".3" stop-color="#785841"/>
      <stop offset="1" stop-color="#a75625"/>
    </linearGradient>
    <linearGradient id="linear-gradient-2" x1="141.21" y1="71.11" x2="179.38" y2="71.11" gradientUnits="userSpaceOnUse">
      <stop offset="0" stop-color="#785841"/>
      <stop offset=".38" stop-color="#a75625"/>
      <stop offset="1" stop-color="#b68149"/>
    </linearGradient>
    <linearGradient id="linear-gradient-3" x1="135.76" y1="85.09" x2="182.56" y2="85.09" xlink:href="#linear-gradient"/>
    <linearGradient id="linear-gradient-4" x1="156.57" y1="22.91" x2="183.66" y2="22.91" gradientUnits="userSpaceOnUse">
      <stop offset=".38" stop-color="#d7b69e"/>
      <stop offset="1" stop-color="#b68149"/>
    </linearGradient>
    <linearGradient id="linear-gradient-5" x1="159.76" y1="32.95" x2="186.86" y2="32.95" xlink:href="#linear-gradient-4"/>
    <linearGradient id="linear-gradient-6" x1="175.31" y1="40.77" x2="188.04" y2="40.77" xlink:href="#linear-gradient-4"/>
    <linearGradient id="linear-gradient-7" x1="138.12" y1="108.8" x2="174.22" y2="108.8" xlink:href="#linear-gradient-2"/>
    <linearGradient id="linear-gradient-8" x1="149.39" y1="109.87" x2="197.88" y2="109.87" xlink:href="#linear-gradient-2"/>
    <linearGradient id="linear-gradient-9" x1="161.16" y1="113.58" x2="212.77" y2="113.58" xlink:href="#linear-gradient-2"/>
    <linearGradient id="linear-gradient-10" x1="181.36" y1="127.09" x2="216.83" y2="127.09" xlink:href="#linear-gradient-2"/>
    <linearGradient id="linear-gradient-11" x1="164.52" y1="144.92" x2="216.83" y2="144.92" xlink:href="#linear-gradient-2"/>
    <linearGradient id="linear-gradient-12" x1="121.4" y1="159.27" x2="208.06" y2="159.27" xlink:href="#linear-gradient-2"/>
    <linearGradient id="linear-gradient-13" x1="113.11" y1="128.14" x2="135.77" y2="128.14" gradientUnits="userSpaceOnUse">
      <stop offset="0" stop-color="#a75625"/>
      <stop offset="1" stop-color="#81441d"/>
    </linearGradient>
    <linearGradient id="linear-gradient-14" x1="116.45" y1="140.97" x2="178.01" y2="140.97" gradientUnits="userSpaceOnUse">
      <stop offset="0" stop-color="#a75625"/>
      <stop offset=".99" stop-color="#9f6c34"/>
    </linearGradient>
    <linearGradient id="linear-gradient-15" x1="95.79" y1="139.8" x2="112.44" y2="139.8" gradientUnits="userSpaceOnUse">
      <stop offset="0" stop-color="#a75625"/>
      <stop offset="1" stop-color="#231f20"/>
    </linearGradient>
    <linearGradient id="linear-gradient-16" x1="30.75" y1="367.12" x2="125.39" y2="367.12" gradientUnits="userSpaceOnUse">
      <stop offset="0" stop-color="#777a4e"/>
      <stop offset=".2" stop-color="#6e7047"/>
      <stop offset=".54" stop-color="#595835"/>
      <stop offset=".96" stop-color="#353017"/>
      <stop offset="1" stop-color="#322c15"/>
    </linearGradient>
    <linearGradient id="linear-gradient-17" x1="200.45" y1="320.65" x2="154.89" y2="231.21" gradientUnits="userSpaceOnUse">
      <stop offset="0" stop-color="#cc2d28"/>
      <stop offset=".26" stop-color="#e82827"/>
      <stop offset=".5" stop-color="#e82827"/>
      <stop offset="1" stop-color="#f05327"/>
    </linearGradient>
    <linearGradient id="linear-gradient-18" x1="120" y1="323.04" x2="116.53" y2="265.71" xlink:href="#linear-gradient-17"/>
    <linearGradient id="linear-gradient-19" x1="32.69" y1="303.87" x2="110.32" y2="273.13" xlink:href="#linear-gradient-17"/>
    <linearGradient id="linear-gradient-20" x1="168.11" y1="222.5" x2="257.03" y2="296.72" xlink:href="#linear-gradient-17"/>
    <linearGradient id="linear-gradient-21" x1="0" y1="285.38" x2="65.7" y2="285.38" xlink:href="#linear-gradient-17"/>
  </defs>
  <g id="Layer_1-2" data-name="Layer 1">
    <g>
      <g>
        <path class="cls-3" d="m86.96,148.84c-9.03,3.61-13.1,7.68-11.74,11.29s-7.9,2.94-8.13,7.23-7.68,2.94-4.29,4.74,8.81,6.1,9.94,6.1,1.81-2.71,2.71-1.58,7.9-1.58,10.39-.45,4.07,13.55,12.65,9.03,17.16,1.36,18.97-4.07,8.58-28.91,6.32-31.17-30.04-4.52-32.52-3.39-4.29,2.26-4.29,2.26Z"/>
        <path class="cls-3" d="m88.88,149.78c1.35-13.03,44.92-138.37,98.39-148.7,26.51-4.04,16.62,39.98,15.72,45.82s-2.25,23.36,0,29.2,1.31,11.04-2.26,9.14c-15.27-8.09-74.11-4.65-106.46,67.68-.9-.45-4.04-.45-4.04-.45l-1.35-2.7Z"/>
        <g>
          <g>
            <g>
              <path class="cls-2" d="m97.53,138.21c.63-8.52,18.96-53.96,21.88-53.72s7.05-7.29,12.15-8.51,5.1-.97,6.81,1.46,4.13,3.4,2.43,8.02-8.26,18.23-10.21,19.2-33.54,40.11-33.06,33.54Z"/>
              <path class="cls-16" d="m170.45,70.88c2.27-1.7,1.22-6.32,3.89-8.75s5.83-4.38,4.86-4.38-5.59,1.22-6.56-.49-4.13-3.65-8.99-.73-15.8,11.42-17.01,13.37-6.81,17.74-5.1,17.26,26.01-14.1,28.92-16.29Z"/>
              <path class="cls-14" d="m135.94,99.56c-1.01,1.81,2.67-7.54,4.86-9.24s33.79-19.69,35.97-19.93,4.38,3.16,5.35,3.65.24,3.16-1.22,3.16-41.56,16.29-44.97,22.36Z"/>
            </g>
            <g>
              <path class="cls-15" d="m157.08,29.56c2.75-3.09,3.4-11.18,9.24-12.64s11.42-1.22,14.34-1.94c2.92-.73,4.13,1.22,1.7,3.4s-21.15,12.4-22.12,12.4-5.1.97-3.16-1.22Z"/>
              <path class="cls-19" d="m162.43,33.94c3.2-3.6,16.04-9.97,20.42-10.21s4.38,1.7,3.65,2.67.97,2.19-.49,3.65-17.26,7.05-18.23,8.26-5.59,5.59-5.35,3.16,2.92-4.62,1.94-4.86-4.62.24-4.62.24c0,0,.73-.73,2.67-2.92Z"/>
              <path class="cls-17" d="m175.31,38.55c1.94-1.22,5.83-3.89,8.26-3.16s5.83.49,3.89,3.16,1.22,3.4-3.89,5.83-7.54,2.67-7.05-.24-1.22-5.59-1.22-5.59Z"/>
            </g>
          </g>
          <path class="cls-10" d="m165.73,42.68c-.48,1.28,2.05,2.32,2.32,3.83s-1.78,3.01-.41,3.42,2.19.27,4.1,0,6.15-2.6,6.02-3.15-1.23-3.01-1.37-4.51-1.78-3.97-3.28-3.83-6.97,3.15-7.38,4.24Z"/>
          <path class="cls-8" d="m203.06,12.04c1.29,0,1.29-2,0-2s-1.29,2,0,2h0Z"/>
          <g>
            <path class="cls-7" d="m132.36,66.61c-1.22-2.45,4.51-11.35,6.15-11.49s4.79,2.05,4.24,3.01-6.43,8.21-7.11,8.21-3.15.55-3.28.27Z"/>
            <path class="cls-7" d="m149.04,42.82c.14,1.91,1.5,2.05,2.05,3.15s-.55,2.19,1.5,1.64,5.47-2.19,5.74-3.69.55-4.1.55-4.1c0,0-2.19-2.05-2.46-2.46s-7.38,5.47-7.38,5.47Z"/>
            <path class="cls-7" d="m146.04,39.67c.68-1.5,3.42-3.56,3.56-4.51s1.64-3.97,2.6-3.56,1.78,2.87,2.6,3.83-5.33,6.84-6.56,6.15-2.19-1.91-2.19-1.91Z"/>
            <path class="cls-7" d="m142.89,64.56c-.96,1.23-3.42,1.91-3.28.96s2.19-3.56,2.74-4.24,6.97-6.84,9.03-6.02,2.6,2.19,2.32,3.42-6.97,8.62-8.21,8.48-2.6-2.6-2.6-2.6Z"/>
            <path class="cls-7" d="m137.15,48.97c-.25,1.13,1.64.27,2.05-.27s4.38-5.61,3.97-5.74-1.37.41-1.78-.14-3.97,4.92-4.24,6.15Z"/>
            <path class="cls-8" d="m189.39,46.37c-1.07-1.61-8.48,2.19-8.48,5.2s6.84,2.19,7.11,1.09,1.64-5.88,1.37-6.29Z"/>
            <path class="cls-8" d="m180.77,60.32c-1.04.89-.96,2.05-.41,3.42s1.5,2.05,3.15.96,2.74-2.74,2.32-4.1-2.19-2.74-5.06-.27Z"/>
            <path class="cls-8" d="m185.28,66.75c-1.42.65-.27,1.91-.41,2.46s-.14,2.32,1.09,2.32,2.6,1.91,4.38.82-.55-3.42.55-3.56.41-3.28-1.37-3.01-2.46.14-4.24.96Z"/>
            <path class="cls-8" d="m196.63,65.65c-2.07,1.13-1.37,6.97-.27,6.97s1.91-1.37,2.19-2.74-.41-5.06-1.91-4.24Z"/>
            <path class="cls-8" d="m191.3,56.08c-.84,1.13.96,2.32.96,3.28s1.5,2.32,2.46,1.37,2.46-1.78,1.5-2.74-3.69-3.56-4.92-1.91Z"/>
            <path class="cls-8" d="m195.95,46.51c-2.72,1.17-3.69,4.65-2.32,5.47s2.6-.68,3.28-2.46.96-3.83-.96-3.01Z"/>
            <path class="cls-8" d="m188.43,39.95c.53-.96-.41,3.97-1.37,4.1s-.96.55-2.05.14,2.74-3.01,3.42-4.24Z"/>
            <path class="cls-8" d="m194.45,38.03c-.7.7-2.19,3.28-.14,3.28s4.65-1.5,4.24-2.32-1.78-3.28-4.1-.96Z"/>
            <path class="cls-8" d="m189.39,31.88c-.97,1.36.14,3.28,1.23,3.69s3.28-.82,3.28-3.01-.55-2.6-1.5-2.6-2.32.96-3.01,1.91Z"/>
            <path class="cls-8" d="m198.55,30.37c-2.79,1.35-3.56,3.42-1.64,3.83s4.02,1.37,3.42-1.5c-.41-1.99-.31-3.03-1.78-2.32Z"/>
            <path class="cls-8" d="m198.35,19.25c-.61.32-.76,1.22-.38,1.8s1.14.83,1.83.73c1.14-.16,2.07-1.23,2.09-2.38,0-.47-.14-.97-.5-1.28-.5-.42-1.27-.37-1.83-.04s-.97.86-1.37,1.38"/>
            <path class="cls-8" d="m196.46,12.55c-.55.13-.9.81-.67,1.34s.96.74,1.44.42c.34-.23.53-.66.9-.82.26-.11.55-.07.82-.08s.59-.09.71-.34c.13-.26-.03-.59-.27-.74s-.55-.18-.84-.17c-.72.02-1.43.17-2.09.45v-.06Z"/>
            <path class="cls-8" d="m196.56,8.22c-.26.21-.52.43-.72.7s-.31.62-.24.95.35.62.69.62c.22,0,.43-.12.62-.23.47-.28.94-.56,1.41-.84.22-.13.46-.28.57-.52.21-.46-.21-1-.69-1.12s-.99.05-1.46.21l-.18.22Z"/>
            <path class="cls-8" d="m184,13.14c-.44-.36-.45-1.06-.19-1.56s.73-.86,1.18-1.19c.77-.57,1.67-1.17,2.61-.96.77.18,1.3.85,1.76,1.48.23.32.48.67.44,1.06-.05.56-.64.89-1.17,1.06-1.51.5-3.19.51-4.7,0l.06.1Z"/>
            <path class="cls-8" d="m171.79,11.09c.44-1.61,1.59-3,3.09-3.73,1.19-.58,2.75-.68,3.75.19.65.57.93,1.61.43,2.32-.47.66-1.62,1.58-2.43,1.65-1.64.14-3.89.78-4.68-.39l-.16-.04Z"/>
            <path class="cls-8" d="m190.72,23.51c-.58-.12-1.17-.25-1.68-.56s-.9-.86-.87-1.45c.03-.57.43-1.04.85-1.43.84-.77,1.84-1.37,2.91-1.75.41-.14.84-.26,1.27-.21s.86.3,1.02.7c.41,1-.99,2.1-.57,3.1.11.26.35.49.34.78-.02.44-.56.62-1,.68-.85.12-.83.03-1.68.16h-.59Z"/>
            <path class="cls-8" d="m186.91,17.87s-.02-.09,0-.11c0,0-.04.12,0,.02-.05.1-.02.04,0,.02.01-.02.09-.11,0-.03.04-.04.07-.08.11-.11-.09.08.01,0,.03-.01.02-.01.13-.06.03-.02.29-.11.6-.12.9-.22.59-.19,1.12-.6,1.42-1.15.2-.36.26-.82-.05-1.15-.27-.28-.74-.3-1.06-.1-.3.17-.46.49-.65.75-.02.03-.05.06-.07.09.01-.02.05-.07,0,0-.05.06-.1.12-.15.17-.1.11-.21.22-.32.33-.12.12-.25.23-.38.33.02-.01.07-.05,0,0-.04.03-.07.05-.11.08-.07.05-.13.09-.2.14-.32.25-.61.56-.6.99,0,.3.32.6.63.48l.11-.04c.24-.09.44-.34.35-.62-.08-.24-.35-.45-.62-.35l-.11.04.63.48c0-.11-.01.02-.01.02,0,0,.01-.06.02-.07-.06.06-.02.05,0,0,.03-.06-.06.06,0,.01.04-.03.07-.08.11-.11.01,0,.08-.06.03-.02-.05.04.04-.03.05-.03.24-.17.47-.34.68-.54.19-.17.37-.36.54-.56.19-.22.34-.47.51-.7-.06.08.04-.04.06-.06-.01.01-.08.06,0,0,.02-.02.09-.04-.02,0,.03-.01.09,0-.03,0,.04,0,.07.01-.03-.01.08.02-.01-.01-.03-.02-.05-.03-.09-.08-.1-.14v-.03s0-.04,0,.01c0-.02.03-.11,0-.01,0,.02-.04.08,0,0-.01.02-.02.05-.04.07-.03.05-.05.1-.09.14-.02.02-.03.04-.05.07.06-.09-.01.01-.02.03-.07.08-.16.15-.24.23.08-.07-.04.03-.06.04-.06.04-.12.07-.18.1-.03.01-.17.07-.07.03-.05.02-.1.04-.16.05-.14.04-.29.07-.43.09-.34.07-.66.17-.93.4s-.45.57-.41.92c.03.26.21.51.5.5.25-.01.53-.22.5-.5Z"/>
            <path class="cls-8" d="m186.9,2.83c-.04.05-.15.18-.04.06.02-.03.05-.05.07-.08.05-.06.11-.12.16-.17s.12-.1.18-.16c.09-.08-.18.13-.08.06.04-.03.07-.05.11-.08.13-.09.27-.17.41-.24.03-.02.06-.03.1-.05.15-.07-.18.07-.07.03.07-.03.15-.06.22-.08.14-.05.29-.08.43-.11.04,0,.09-.02.13-.02-.02,0-.25.03-.11.02.08,0,.16-.01.24-.02.16,0,.31,0,.47.02.12,0-.27-.05-.08,0,.03,0,.07.01.1.02.09.02.17.04.26.07l-.44-1.67c-.06.05-.13.1-.18.15.21-.21.03-.03-.03.02-.13.09-.26.17-.4.24-.07.04-.14.07-.21.11-.04.02-.07.03-.11.05-.1.04-.07.03.08-.03-.15.03-.29.11-.44.16s-.3.08-.46.11c-.08.01-.16.02-.23.04.31-.07.06-.01-.03,0-.31.02-.62.02-.94-.02-.24-.03-.55.13-.71.29-.17.17-.3.46-.29.71s.1.53.29.71c.21.19.43.26.71.29,1.58.19,3.17-.38,4.36-1.4.59-.51.24-1.47-.44-1.67-.82-.24-1.74-.22-2.55.05-.39.13-.79.31-1.13.55-.43.3-.76.64-1.07,1.05-.15.19-.16.55-.1.77s.24.48.46.6c.23.12.51.18.77.1s.43-.24.6-.46h0Z"/>
            <path class="cls-8" d="m189.39,5.77c-.13.1.12-.09.15-.11.09-.07.19-.13.28-.2.16-.11.33-.22.5-.32.38-.23.77-.43,1.17-.61.04-.02.09-.04.13-.06-.09.04-.08.03.03-.01.09-.04.18-.07.27-.11.2-.07.4-.14.6-.2s.41-.12.62-.17c.1-.02.19-.04.29-.06.12-.02.13-.03.02,0-.26-.04-.44-.18-.54-.41v-.53c.02-.15.22-.26.3-.35.07-.03.07-.03,0,0l-.11.04c-.16.06-.32.12-.48.17-.32.12-.65.23-.97.35-.63.23-1.27.46-1.9.68-.3.11-.59.21-.89.32-.01,0-.42.16-.43.14.04-.01.08-.01.13,0,.09,0,.17.06.23.15.33.15.28.38-.13.67-.42.36-.51.54-.28.53.08-.02-.15-.05,0,.01.04.02.09.03.14.05.16.04.34.07.51.07.5,0,.89-.24,1.16-.64.3-.43.09-1.13-.36-1.37-.51-.27-1.05-.1-1.37.36.42-.6.84-.33.53-.35.24.02.11.02.06,0-.09-.04-.2-.06-.29-.08-.43-.09-.87-.04-1.22.23-.74.57-.57,1.73.22,2.18.68.38,1.38.07,2.05-.16.57-.21,1.15-.41,1.72-.62s1.18-.43,1.77-.64c.69-.25,1.6-.55,1.56-1.47-.02-.45-.26-.89-.66-1.12s-.8-.22-1.23-.15c-.54.1-1.08.26-1.6.45-1.25.46-2.38,1.11-3.42,1.93-.41.32-.37,1.08,0,1.41.44.4.97.35,1.41,0h0Z"/>
            <path class="cls-8" d="m125.63,68.32c-.7.35,3.04-10.02,3.93-10.02s2.26-.2,1.96,1.18-5.11,8.45-5.89,8.84Z"/>
            <path class="cls-8" d="m113.85,89.14c.29-1.57,3.34-12.96,5.01-12.96s1.87.39,1.87,1.28-6.87,11.69-6.87,11.69Z"/>
            <path class="cls-8" d="m123.89,67.89c-1.49,1-1.99.39-1.8-.58s3.11-7.38,3.54-7.57,2.09-.78,2.09-.78c0,0-3.11,8.45-3.83,8.93Z"/>
            <path class="cls-8" d="m136.46,49.1c-.63.34-3.01,1.46-2.91.73s4.76-8.69,5.78-8.69,1.12,1.75.58,2.28-3.45,5.68-3.45,5.68Z"/>
            <path class="cls-8" d="m164.11,13.87c-1.39.17,4.42-5.46,5.22-5.46s1.77.32,1.69.96-6.27,4.42-6.91,4.5Z"/>
          </g>
        </g>
        <path class="cls-3" d="m93.45,152.76c-9.43-1.35,45.37-72.33,83.11-72.78s17.97,4.04,24.71,3.59,8.54,2.7,10.33,6.29,13.93,5.84,14.83,13.48,8.54,10.33,8.98,14.83c.45,4.49-4.94,11.23-4.04,14.83s5.84,12.13,3.59,17.97-2.25,4.94-4.94,14.83-7.64,17.52-10.33,19.77-3.59,2.25-10.78,5.39-66.49-8.98-77.72-7.19-17.07-16.17-19.32-18.87-14.83-12.13-18.42-12.13Z"/>
        <g>
          <path class="cls-18" d="m172.56,98.91c-6.76,6.19-21.62,18.77-28.38,24.96-.55.51-1.3.76-2.04.71h0c-7.23,3.25-2.65-3.1-1.91-5.05,3.13-8.38,9.98-20.17,17.81-25.72.89-.63,2.61-1.88,3.68-1.67,2.28.44,8.94,2.03,11.22,2.48s1.28,2.79-.36,4.3Z"/>
          <path class="cls-12" d="m188.9,107.83c-7.98,4.5-25.29,13.4-33.28,17.91-.66.37-1.43.45-2.15.23h0c-7.78,1.54-2.34-4.89-.81-6.31,6.68-6.22,17.25-14.61,23.23-20.08.8-.74,8.63-7.59,12.98-5.72,2.13.91,6.59,5.58,8.7,6.53s-6.73,6.35-8.68,7.45Z"/>
          <path class="cls-13" d="m163.85,125.03c-7.92.34,3.96-3.86,5.79-4.86,8.02-4.36,20.48-11.15,27.63-14.95.96-.51,8.2-4.52,9.94-2.59,3.15,3.5,8.32,5.62,3.74,12.79-1.2,1.88-9.95,1.77-12.11,2.35-8.85,2.38-8.24,2.9-17.23,4.74-4.4.9-13.29,2.33-17.77,2.52Z"/>
          <path class="cls-30" d="m182.09,132.4c-4.95-1.24,16.42-15.86,31.36-13.28.74,2.03,3.87,7.01,3.32,8.67s-3.87,5.53-3.87,7.19-30.07-2.4-30.81-2.58Z"/>
          <path class="cls-31" d="m164.56,146.05c-.95-.95,13.65-9.41,15.49-9.96s32.65,1.11,33.39,2.21,1.66,8.12,3.14,8.85-4.06.74-5.16,4.61-.92,1.48-5.35,0-11.07-3.14-21.58-6.27c-9.92-2.96-18.26,2.21-19.92.55Z"/>
          <path class="cls-29" d="m121.4,158.59c.21,2.95,21.95,5.9,35.05,4.61s48.51,7.38,50.54,7.01-1.48-6.46.55-6.64-2.58-5.35-2.58-6.83-29.07-11.65-47.78-7.38c-12.91,2.95-35.97,6.64-35.79,9.22Z"/>
          <path class="cls-11" d="m122.32,163.39c-3.22-.71,9.41,8.85,19.55,11.25s55.71,12.91,56.45,11.99,3.32-5.9,4.8-7.01.74-4.8,1.29-5.53-11.44-3.32-20.11-3.69-56.08-5.72-61.98-7.01Z"/>
          <path class="cls-11" d="m117.71,164.12c-.47,3.77.92,16.79,6.27,17.15s64.01,6.83,73.97,8.3c-4.8-2.21-35.79-9.22-47.41-10.7s-19.92-5.53-22.32-7.56-10.33-8.67-10.51-7.19Z"/>
        </g>
        <g>
          <path class="cls-28" d="m114.86,144.77c-2.63,1.13-3.1-11.95,4.5-19.86s7.6-12.72,10.55-13.34,7.91.78,4.96,9.46-15.67,21.87-20.01,23.74Z"/>
          <path class="cls-20" d="m118.74,154.85c-2.58.14-3.1-3.41-.93-5.9s18.15-17.53,20.79-18.46,5.58.31,9.15.31,20.17-4.65,22.34-3.57,7.45-.47,7.91,1.24-18,13.81-24.05,15.67-32.42,10.55-35.22,10.7Z"/>
          <path class="cls-24" d="m95.79,148.69c.21-4.75,13.46-23.8,14.45-22.93s3.12.75,1.74,3.36-4.61,11.46-2.24,16.07c-3.12,1.12-7.48-1.37-9.35,0s5.11,2.24,5.48,3.36,2.12,4.11-.25,5.11-9.97-2.12-9.84-4.98Z"/>
        </g>
        <g>
          <path class="cls-4" d="m134.43,106.86c-.97,1.94.41,1.24,1.24,3.3s3.71,3.71,4.12,2.06,3.09-3.81,1.44-5.36-.41-2.27-2.47-1.75-3.71.51-4.33,1.75Z"/>
          <path class="cls-4" d="m143.59,98.92c1.05-.84,7.62-5.05,8.55-5.05s2.47-.51,2.27,0-3.71,5.05-4.33,5.15-2.06,1.65-3.4,1.44-4.12-.72-3.09-1.54Z"/>
          <path class="cls-4" d="m166.56,87.9c-1.46.55-4.12,1.65-4.02,2.47s1.34,1.65,3.19,1.44.93.93,1.65.93,3.09.1,4.02-1.44-.21-2.47-1.34-2.88-2.68-.82-3.5-.51Z"/>
          <path class="cls-4" d="m177.17,90.99c-.62.42-1.85,1.13-1.44,1.75s1.03,1.34,1.44,1.85,1.54,1.75,3.19.72,1.65-1.13,2.16-1.96-.93-2.88-1.96-2.88-2.47-.1-3.4.51Z"/>
          <path class="cls-4" d="m174.49,84.51c-1.07.62,1.75,2.88,4.02,2.47s3.91-1.13,3.5-2.06-5.05-1.85-7.52-.41Z"/>
          <path class="cls-4" d="m186.75,85.43c-1.65,1.57,2.06,4.12,4.63,3.81s1.34-1.54,3.09-1.65,3.09-1.54,1.24-2.16-6.9-1.96-8.96,0Z"/>
          <path class="cls-4" d="m192.83,91.1c-.42.71,1.34,4.74,3.09,5.05s3.91-.21,3.71-1.24-.51-2.16-.41-3.09-4.74-3.5-6.39-.72Z"/>
          <path class="cls-4" d="m199.93,99.44c-.61.72-.31,3.09.41,3.19s3.3-.62,3.19-2.16-2.47-2.37-3.6-1.03Z"/>
          <path class="cls-4" d="m203.23,88.93c-.82,1.31-.82,2.88.41,4.22s3.3,1.75,4.22.21.31-5.05-1.34-5.05-2.27-1.03-3.3.62Z"/>
          <path class="cls-4" d="m208.69,95.53c-.95,1.33-2.06,1.96-1.24,2.57s2.47,2.78,4.53,2.27,3.4-1.13,2.68-2.06-2.88-1.54-3.4-2.16-1.54-2.06-2.57-.62Z"/>
          <path class="cls-4" d="m211.26,102.32c-.5.23-2.06.82-1.03,1.85s.82,1.85,1.54,2.37,2.27,1.96,2.99,1.85,1.03-3.3.72-3.91-2.88-2.78-4.22-2.16Z"/>
          <path class="cls-4" d="m220.33,102.84c-1.8.64-2.06,1.44-1.34,2.57s1.65,3.6,3.3,3.6,1.75-2.27.93-3.09-1.44-3.6-2.88-3.09Z"/>
          <path class="cls-4" d="m213.94,114.48c.94-1.15,3.09-.72,3.09.72s-.41,2.68-2.16,2.99-1.85-2.57-.93-3.71Z"/>
          <path class="cls-4" d="m217.96,119.63c-1.51.93-1.13,1.96-.1,3.09s-.72,2.27.31,3.19,3.3,4.33,3.6,2.27,1.44-7.11.1-7.11-2.57-2.27-3.91-1.44Z"/>
          <path class="cls-4" d="m223.31,112.73c-1.18.59,0,4.74,1.03,4.74s3.4,1.65,4.12.21-3.3-5.87-5.15-4.94Z"/>
          <path class="cls-4" d="m229.6,111.9c-.93,0-1.75,0-1.65.41s3.09,5.36,3.5,5.36,1.34,0,1.13-.51-2.27-5.25-2.99-5.25Z"/>
          <path class="cls-4" d="m225.06,103.15c-1.03,0,0,.93,0,1.96s.93,3.91,1.85,3.71,1.65-.41.62-1.65-2.47-4.02-2.47-4.02Z"/>
          <path class="cls-4" d="m214.66,93.77c-.51.1-1.96-.1-1.54.41s4.33,3.91,4.84,3.81,1.85-.62,1.24-.82-4.53-3.4-4.53-3.4Z"/>
          <path class="cls-4" d="m209.72,88.21c-1.24.31-1.65.1-.82,1.03s.93,2.57,1.75,2.57,1.85.93,1.34,0-2.27-3.6-2.27-3.6Z"/>
          <path class="cls-4" d="m217.44,133.43c-1.52,1.01-2.88,3.81-1.96,4.53s1.65,1.34,2.88,1.34,1.75-2.68,2.06-3.71-2.06-2.78-2.99-2.16Z"/>
          <path class="cls-4" d="m230.01,122.92c-2.27-.45-3.5,1.34-3.09,2.88s-.82,3.81.21,4.02,2.78-.62,3.3-2.27.1-4.53-.41-4.63Z"/>
          <path class="cls-4" d="m233.92,124.88c-.82,0-1.44,2.78-1.54,4.33s-1.03,1.54-.1,1.54,1.54-.1,1.54-.93.1-4.94.1-4.94Z"/>
          <path class="cls-4" d="m227.02,133.74c-1.27.1-2.16,1.65-1.65,2.78s0,2.37,1.13,2.88,3.81,1.24,3.5-.62,0-2.37-.21-2.88-1.44-2.27-2.78-2.16Z"/>
          <path class="cls-4" d="m217.44,141.46c.51,1.54-.21,1.85.21,2.78s.72,2.99,3.09,2.88.62-3.19.41-4.02-1.65-2.06-2.37-2.16-1.34.51-1.34.51Z"/>
          <path class="cls-4" d="m228.67,144.86c-1.38,1.15-.31.93-1.54,1.65s-.93,4.33.41,4.53,3.5-.31,3.5-3.19-1.13-4.02-2.37-2.99Z"/>
          <path class="cls-4" d="m234.75,146.71c-.51-.72-1.34-1.75-1.54-.51s-1.24,4.74-.31,4.74.51.21.93,0,.93-4.22.93-4.22Z"/>
          <path class="cls-4" d="m233.51,134.77c-.51-.1-1.24-.93-1.44-.21s0,5.25.72,5.87,1.13,0,1.13,0l-.41-5.66Z"/>
          <path class="cls-4" d="m214.46,157.12c-1.02-1.31,1.34-4.02,2.27-4.02s2.99-.41,3.09.41.82,1.96.82,2.57-2.37,2.37-3.19,2.37-2.27-.41-2.99-1.34Z"/>
          <path class="cls-4" d="m226.51,153.62c-1.16.62-.72,2.47-.82,3.5s.82,2.16,1.65,2.37,1.44,1.24,1.96.1,1.34-3.19.93-4.12-2.16-2.68-3.71-1.85Z"/>
          <path class="cls-4" d="m234.02,154.75c-.62-.31-1.54-.1-1.54-.1,0,0-.62,3.4-.1,4.22s1.65.41,1.65.1v-4.22Z"/>
          <path class="cls-4" d="m208.58,158.35c-.72.9,1.24,7.21,4.33,6.49s.72-5.25-.51-5.77-3.4-1.24-3.81-.72Z"/>
          <path class="cls-4" d="m220.43,162.06c-.85,1.45,0,4.43,1.65,5.25s3.81,1.13,3.81-.31.1-5.15-2.06-5.36-2.37-1.34-3.4.41Z"/>
          <path class="cls-4" d="m230.73,165.98c-.31-.72-.72-1.75-1.34-.72s-1.75,3.71-1.03,3.71,1.24,0,1.96-1.44.41-1.54.41-1.54Z"/>
          <path class="cls-4" d="m209.1,169.68c-.15-.87-.82-2.16.51-2.16s4.53.51,3.5,1.75.72.21.72,1.96-.72,2.27-2.27,1.85-2.37-2.78-2.47-3.4Z"/>
          <path class="cls-4" d="m218.99,170.51c.48-1.21,2.68-.41,3.19,0s2.06,1.54,1.75,2.68-2.47,1.75-3.4,1.03-2.16-2.16-1.54-3.71Z"/>
          <path class="cls-4" d="m209,188.33c-.34-1.02,1.65-4.33,2.27-4.33s3.4-.41,3.3.31-3.09,4.12-3.71,4.12-1.54.82-1.85-.1Z"/>
          <path class="cls-4" d="m213.84,181.01c-1.6,0,1.75-3.71,3.3-3.71s2.88-1.24,3.3,0-1.44,2.57-1.85,3.5-.51,1.85-1.85,1.75-2.68-1.54-2.88-1.54Z"/>
          <path class="cls-4" d="m207.76,181.32c1.06.11.62-2.06,1.75-2.57s3.4-1.44,1.54-2.78-4.02-1.44-5.05.41-.31,4.74,1.75,4.94Z"/>
          <path class="cls-4" d="m200.55,188.33c.72,2.16,4.12,0,4.12-1.44s2.06-2.57,1.65-3.4-1.44-1.96-2.78-.72-3.5,4.02-2.99,5.56Z"/>
        </g>
        <g>
          <path class="cls-3" d="m91.72,179.96c-4.16-1.31-6.78-4.52-10.07-6.39.36.26,1.28.03,1.65-.37.1-.09.17-.15.22-.25.07-.06.08-.14.07-.05-.18.93-.12,2.74-.07,3.87.32,8.28,5.11,16.4,3.98,25-1.43,5.27-4.41,9.46-7.07,13.93-1.59,2.81-3.94,5.89-4.62,8.9-.01-.04-.09-.09-.16-.12-.07,0,0,0-.02,0v.03c2.58.53,5.07,1.23,7.45,2.38.25.12.35.42.23.67-.11.23-.37.33-.6.26-1.55-.4-3.18-.65-4.79-.83-1.52-.29-3.68.24-4.4-1.52-.24-.59-.24-1.29-.17-1.89.63-3.51,2.32-6.53,3.79-9.68,1.23-2.6,3.12-6.27,4.18-8.86.89-2.19,1.56-3.93,1.34-6.09-.85-7.26-4.38-14.17-4.8-21.79-.08-2.16-.28-3.67.44-6.01.45-1.62,2.18-3.12,3.97-2.89,1.19.07,2.48.91,3.21,1.64,2.85,2.82,4.59,6.19,6.81,9.24.32.39-.1.99-.57.82h0Z"/>
          <path class="cls-3" d="m111.65,173.71c.89-1.95,1.52-4.18,2.65-6.05.2-.32.58-.84,1.04-.99.37-.18,1.07.04,1.25.32.39.42.43,1,.47,1.36.1.5-.38,10.05-.4,10.84.05,2.66-.33,5.7.74,8.1-.03-.04-.14-.1-.18-.08,6.89,1.21,16.05,2.32,18.98,9.76,0,0,.72,2.27.72,2.27,1.48,4.47,3.21,8.91,5.33,13.09,1.08,2.03,2.23,4.08,3.93,5.62.56.49,1.18.85,1.82.9.27.03.48.27.45.54-.02.26-.24.45-.49.45-5.18-.29-9.72-11.03-11.7-15.26-1.09-2.43-1.96-5.19-3.01-7.64-1.64-2.7-4.73-4.05-7.97-5.04-2.57-.79-5.32-1.22-7.99-1.62-.4-.07-.92-.14-1.3-.33-4.39-2.46-1.23-17.01-1.02-21.52,0-.13-.02-.34,0-.25.17.36.73.55,1.08.35.02-.01.05-.03.06-.05h0s-.15.14-.25.26c-1.25,1.68-2.19,3.88-3.43,5.59-.41.51-1.16-.11-.78-.62h0Z"/>
          <path class="cls-3" d="m94.41,183.03c.82,5.01,3.2,10.2,4.05,15.26.3,1.75-.57,3.56-1.21,5.08-.71,1.62-1.42,3.18-2,4.77-1.25,3.2-1.54,6.46-.69,9.8.19.84.39,1.83.22,2.83-.17.99-.64,1.83-1.11,2.59-.15.23-.45.31-.69.16-.22-.14-.3-.43-.18-.66.9-1.52,1.05-2.9.44-4.59-.52-1.68-.87-3.54-.85-5.37.03-3.76,1.45-7.19,2.6-10.43.48-1.53,1.16-2.71.63-4.29-.79-2.77-2.49-6.94-3.51-9.72-.58-1.68-1.32-3.38-1.54-5.18-.43-2.02,2.05-3.25,3.18-1.44,0,0,.66,1.19.66,1.19h0Z"/>
          <path class="cls-3" d="m119.66,179.06c1.34,8.32,3.52,16.87,6.12,24.92.17.47.36.96.58,1.4,1.22,2.26,1.11,4.95.45,7.34-.17.6-1.1.39-.97-.24.29-1.33.36-2.78.12-4.1-.19-1.41-1.11-2.56-1.63-3.82-3.25-8.22-5.92-16.39-7.89-25.04-.36-2.21,2.93-2.7,3.21-.46h0Z"/>
          <path class="cls-1" d="m76.12,178.16s1.13,19.75,4.7,23.51"/>
          <path class="cls-3" d="m70.42,169.61c-1.14.29-2.18.19-3.24.53-3.05,1.04-4.9,3.86-6.68,6.46,0,0-7.38,10.96-7.38,10.96-3.37,5.2-7.34,10.61-10.02,15.92.05,1.15-.37,4.19.93,4.98.75.4,1.02,1.33.62,2.07-1.17,1.9-3.3.03-3.86-1.37-.89-2.07-.59-4.18-.44-6.2.06-.34.14-.42.23-.68,3.13-5.62,7.18-10.65,10.86-15.89,0,0,7.8-10.66,7.8-10.66,1.95-2.66,4.22-5.73,7.62-6.69,1.16-.32,2.39-.2,3.3-.41.61-.12.86.78.24.97h0Z"/>
          <path class="cls-3" d="m71.23,167.37c-1.04.15-2.14,1.01-3.03,1.66-2.98,2.32-5.62,5.06-8.23,7.79-3.46,3.69-6.78,7.53-9.97,11.47-4.02,4.97-7.58,10.37-12.24,14.79-.66.74-1.36,1.21-1.32,2.14.26,1.54.78,3.7,1.12,5.27.05.22.18.48.1.32-.04-.09-.29-.31-.58-.37-.17-.02-.22-.05-.35-.02,2.49-.55,2.92,3.15.38,3.28-3.27.08-2.75-4.12-3.38-6.23-.37-1.36-.56-3.6.53-4.83,1.31-1.67,2.82-2.75,4.2-4.22,3.57-3.56,6.52-7.75,9.88-11.51,5.97-6.67,12-13.39,19.17-18.8.8-.56,3.88-2.67,4.23-1.27.02.3-.23.53-.52.53h0Z"/>
        </g>
        <g>
          <path class="cls-9" d="m109.88,148.99c-2.89,0-4.07,3.87-2.65,5.09s4.27,2.65,4.27,1.22-.41-6.31-1.63-6.31Z"/>
          <path class="cls-9" d="m114.97,156.93c-1.77.44-.81,4.89,1.02,4.48s4.89.81,4.07-.61-3.46-4.27-5.09-3.87Z"/>
          <path class="cls-9" d="m104.79,159.17c-1.63,2.04-1.83,6.11-.41,6.11s3.26-3.26,3.05-3.87-2.65-2.24-2.65-2.24Z"/>
          <path class="cls-9" d="m100.11,167.11c-2.47.78.61,3.26,1.42,3.26s2.44-4.48-1.42-3.26Z"/>
          <path class="cls-9" d="m91.56,156.32c-.81,0-2.24,4.89-1.02,5.29s5.9-1.42,4.07-2.44-1.83-.2-1.83-1.02-.41-1.83-1.22-1.83Z"/>
          <path class="cls-9" d="m83.22,159.78c-.89.18-1.63,3.05-.41,3.05s3.66-.41,3.46-1.42-2.04-1.83-3.05-1.63Z"/>
          <path class="cls-9" d="m87.09,150.01c-1.44,0,0,3.05,1.22,2.85s3.05-1.02,2.44-1.83-3.05-1.02-3.66-1.02Z"/>
          <path class="cls-9" d="m92.58,167.72c-1.42.11,1.63,5.5,2.24,4.27s.41-4.48-2.24-4.27Z"/>
          <path class="cls-9" d="m88.51,169.55c-.81.81.2,3.05,1.63,3.66s2.44-1.83,1.42-2.44-2.65-1.63-3.05-1.22Z"/>
          <path class="cls-9" d="m67.34,173.01c1.63.61,6.72,3.26,6.72,2.44s-.41-2.65-1.22-2.65-5.5.2-5.5.2Z"/>
          <path class="cls-9" d="m73.45,164.26c-1.02.81.2,3.05,1.63,2.65s1.02-1.83,1.02-1.83l-2.65-.81Z"/>
          <path class="cls-9" d="m77.11,158.15c0,1.63,3.26,1.83,3.05,1.02s.2-3.26-.61-2.85-2.44,1.83-2.44,1.83Z"/>
          <path class="cls-9" d="m99.3,172.61c-1.09.16-.2,3.66.41,3.66s2.04.81,1.83-.41-.81-3.46-2.24-3.26Z"/>
          <path class="cls-9" d="m98.08,153.47c-2.14,1.9,3.26,4.68,4.07,4.27s-1.42-1.63-1.42-2.24-.81-3.66-2.65-2.04Z"/>
        </g>
      </g>
      <g>
        <path class="cls-26" d="m81.49,301.19c4.58,16.42,11.46,16.04,8.78,33.99s-7.33,31.12-12.22,38.57c-5.29,8.05-8.49,15.73-12.09,19.89-11.54,13.31-22.66,30.14-32.97,31.67s17.95,19.86,23.3,14.51,44.68-57.28,46.59-73.32c1.91-16.04,27.11-60.72,21.77-69.89s-43.15,4.58-43.15,4.58Z"/>
        <g>
          <path class="cls-5" d="m140.72,225.06c1.16,4.92,6.66,8.51-35.24,19.81-33.33,8.99-34.34,1.85-35.5-3.07s13.73-12.66,33.26-17.28c19.53-4.62,36.31-4.38,37.48.55Z"/>
          <g>
            <path class="cls-6" d="m93.21,205.95h0c1.37,0,2.47,1.11,2.47,2.47v36.84h-4.95v-36.84c0-1.37,1.11-2.47,2.47-2.47Z" transform="translate(-58.19 34.12) rotate(-15.88)"/>
            <path class="cls-6" d="m78.68,205.36h0c1.37,0,2.47,1.11,2.47,2.47v36.84h-4.95v-36.84c0-1.37,1.11-2.47,2.47-2.47Z" transform="translate(-58.58 30.12) rotate(-15.88)"/>
            <path class="cls-6" d="m73.1,209.03h0c1.37,0,2.47,1.11,2.47,2.47v36.84h-4.95v-36.84c0-1.37,1.11-2.47,2.47-2.47Z" transform="translate(-104.55 67.19) rotate(-30)"/>
            <path class="cls-6" d="m76.77,209.33h0c1.37,0,2.47,1.11,2.47,2.47v36.84h-4.95v-36.84c0-1.37,1.11-2.47,2.47-2.47Z" transform="translate(-81.23 46.33) rotate(-22.33)"/>
            <path class="cls-6" d="m84.7,203.75h0c1.37,0,2.47,1.11,2.47,2.47v36.84h-4.95v-36.84c0-1.37,1.11-2.47,2.47-2.47Z" transform="translate(-42.08 20.89) rotate(-11.28)"/>
            <path class="cls-6" d="m118.18,197.14h0c1.37,0,2.47,1.11,2.47,2.47v36.84h-4.95v-36.84c0-1.37,1.11-2.47,2.47-2.47Z" transform="translate(-40.14 27.32) rotate(-11.28)"/>
            <path class="cls-6" d="m129.61,201.92h0c1.37,0,2.47,1.11,2.47,2.47v31.18h-4.95v-31.18c0-1.37,1.11-2.47,2.47-2.47Z" transform="translate(-9.93 6.2) rotate(-2.64)"/>
            <path class="cls-6" d="m113.11,202.95h.67c1.37,0,2.47,1.11,2.47,2.47v34.22h-5.62v-34.22c0-1.37,1.11-2.47,2.47-2.47Z" transform="translate(-56.23 39.5) rotate(-15.88)"/>
            <path class="cls-5" d="m100.97,204.81h0c1.37,0,2.47,1.11,2.47,2.47v36.84h-4.95v-36.84c0-1.37,1.11-2.47,2.47-2.47Z" transform="translate(-57.58 36.2) rotate(-15.88)"/>
            <path class="cls-5" d="m108.4,209.13h0c1.37,0,2.47,1.11,2.47,2.47v29.83h-4.95v-29.83c0-1.37,1.11-2.47,2.47-2.47Z" transform="translate(-57.52 38.27) rotate(-15.88)"/>
            <path class="cls-5" d="m124.3,199.39h.67c1.37,0,2.47,1.11,2.47,2.47v34.22h-5.62v-34.22c0-1.37,1.11-2.47,2.47-2.47Z" transform="translate(-54.83 42.42) rotate(-15.88)"/>
            <path class="cls-5" d="m135.19,203.03h.67c1.37,0,2.47,1.11,2.47,2.47v27.4h-5.62v-27.4c0-1.37,1.11-2.47,2.47-2.47Z" transform="translate(-13.09 8.7) rotate(-3.51)"/>
            <path class="cls-5" d="m69.21,218.03h.67c1.37,0,2.47,1.11,2.47,2.47v27.4h-5.62v-27.4c0-1.37,1.11-2.47,2.47-2.47Z" transform="translate(-91.84 51.13) rotate(-24.97)"/>
            <path class="cls-5" d="m83.58,215.36h.67c1.37,0,2.47,1.11,2.47,2.47v27.4h-5.62v-27.4c0-1.37,1.11-2.47,2.47-2.47Z" transform="translate(-55.34 28.59) rotate(-14.6)"/>
            <path class="cls-5" d="m92.09,224.32h0c1.37,0,2.47,1.11,2.47,2.47v17h-4.95v-17c0-1.37,1.11-2.47,2.47-2.47Z" transform="translate(-56.03 30.77) rotate(-14.6)"/>
            <path class="cls-5" d="m87.83,226.38h0c1.37,0,2.47,1.11,2.47,2.47v17h-4.95v-17c0-1.37,1.11-2.47,2.47-2.47Z" transform="translate(-56.68 29.76) rotate(-14.6)"/>
            <path class="cls-5" d="m78.11,226.87h0c1.37,0,2.47,1.11,2.47,2.47v17h-4.95v-17c0-1.37,1.11-2.47,2.47-2.47Z" transform="translate(-83.13 46.65) rotate(-22.06)"/>
            <path class="cls-5" d="m104.33,203.79h4.95v36.84c0,1.37-1.11,2.47-2.47,2.47h0c-1.37,0-2.47-1.11-2.47-2.47v-36.84h0Z" transform="translate(266.02 413.16) rotate(165.54)"/>
            <path class="cls-5" d="m98.34,211.76h4.95v29.83c0,1.37-1.11,2.47-2.47,2.47h0c-1.37,0-2.47-1.11-2.47-2.47v-29.83h0Z" transform="translate(255.33 423.44) rotate(165.54)"/>
            <path class="cls-5" d="m80.17,211.25h5.62v34.22c0,1.37-1.11,2.47-2.47,2.47h-.67c-1.37,0-2.47-1.11-2.47-2.47v-34.22h0Z" transform="translate(220.66 431.22) rotate(165.54)"/>
            <path class="cls-5" d="m93.46,215.66h5.62v26.62c0,1.37-1.11,2.47-2.47,2.47h-.67c-1.37,0-2.47-1.11-2.47-2.47v-26.62h0Z" transform="translate(244.39 431) rotate(166.28)"/>
            <path class="cls-5" d="m70.89,220.36h5.62v27.4c0,1.37-1.11,2.47-2.47,2.47h-.67c-1.37,0-2.47-1.11-2.47-2.47v-27.4h0Z" transform="translate(245.68 411.99) rotate(153.17)"/>
            <path class="cls-5" d="m135.41,199.98h5.62v27.4c0,1.37-1.11,2.47-2.47,2.47h-.67c-1.37,0-2.47-1.11-2.47-2.47v-27.4h0Z" transform="translate(295.96 415.94) rotate(174.63)"/>
            <path class="cls-5" d="m121.66,204.93h5.62v27.4c0,1.37-1.11,2.47-2.47,2.47h-.67c-1.37,0-2.47-1.11-2.47-2.47v-27.4h0Z" transform="translate(303.93 397.72) rotate(164.26)"/>
            <path class="cls-5" d="m116.84,217.51h4.95v17c0,1.37-1.11,2.47-2.47,2.47h0c-1.37,0-2.47-1.11-2.47-2.47v-17h0Z" transform="translate(295.81 413.6) rotate(164.26)"/>
            <path class="cls-5" d="m130.2,212.64h4.95v17c0,1.37-1.11,2.47-2.47,2.47h0c-1.37,0-2.47-1.11-2.47-2.47v-17h0Z" transform="translate(296 423.32) rotate(171.72)"/>
          </g>
        </g>
        <g>
          <path class="cls-27" d="m124.46,234.57c11.9-4.87,41.66-8.12,69.26,18.94,27.6,27.06,35.17,41.12,29.22,57.9s-4.87,23.27-16.77,21.1-10.82-8.12-14.61-9.2-29.22-3.25-36.25-16.77c-7.03-13.53-30.84-71.97-30.84-71.97Z"/>
          <path class="cls-21" d="m103.9,240.52c-2.16-2.16-9.74-9.74-13.53-.54s-6.49,77.38,25.97,83.87c32.47,6.49,31.38-48.16,27.06-63.31-4.33-15.15-10.28-22.19-18.94-25.97s-12.99-4.33-14.61-1.08-5.95,7.03-5.95,7.03Z"/>
          <path class="cls-25" d="m84.42,239.44c-15.69,2.16-41.12,9.74-52.49,30.84s-16.23,44.91-7.58,70.34,62.77-20.56,66.56-34.63,18.94-65.47,12.99-65.47-17.86,6.49-17.86,4.33-1.62-5.41-1.62-5.41Z"/>
          <path class="cls-22" d="m133.7,231.49c-15.62,6.25,28.27-21.39,50.43-17.57,22.16,3.82,60.36,15.28,61.89,51.96,1.53,36.68-5.35,15.28-12.23,15.28s-30.56-1.53-36.68-6.11-40.5-52.72-63.42-43.55Z"/>
          <path class="cls-23" d="m65.7,236.84c-15.28,3.06-38.2,10.7-51.96,31.33C-.01,288.8-4.6,333.12,5.33,333.88s.76-9.93,6.11-16.81c5.35-6.88,25.98-61.13,38.2-62.66,12.23-1.53,16.05-17.57,16.05-17.57Z"/>
        </g>
      </g>
    </g>
  </g>
</svg>