<?xml version="1.0" encoding="UTF-8"?>
<svg id="Layer_2" data-name="Layer 2" xmlns="http://www.w3.org/2000/svg" xmlns:xlink="http://www.w3.org/1999/xlink" viewBox="0 0 455.2 350.35">
  <defs>
    <style>
      .cls-1, .cls-2, .cls-3, .cls-4, .cls-5 {
        fill: none;
      }

      .cls-1, .cls-6 {
        opacity: .8;
      }

      .cls-7 {
        fill: url(#linear-gradient);
      }

      .cls-2 {
        clip-path: url(#clippath-3);
      }

      .cls-3 {
        clip-path: url(#clippath-2);
      }

      .cls-4 {
        clip-path: url(#clippath-1);
      }

      .cls-8 {
        fill: #f3e6d4;
      }

      .cls-9 {
        fill: #f3e7bf;
      }

      .cls-10 {
        fill: #d93800;
      }

      .cls-11 {
        fill: #85250d;
      }

      .cls-12, .cls-6 {
        fill: #270000;
      }

      .cls-13 {
        fill: url(#radial-gradient-6);
      }

      .cls-14 {
        fill: url(#radial-gradient-5);
      }

      .cls-15 {
        fill: url(#radial-gradient-3);
      }

      .cls-16 {
        fill: url(#radial-gradient-4);
      }

      .cls-17 {
        fill: url(#radial-gradient-2);
      }

      .cls-18 {
        fill: url(#linear-gradient-3);
      }

      .cls-19 {
        fill: url(#linear-gradient-2);
      }

      .cls-5 {
        stroke: #2c1f17;
        stroke-miterlimit: 10;
      }

      .cls-20 {
        fill: url(#radial-gradient);
      }

      .cls-21 {
        fill: #0e0000;
        opacity: .5;
      }
    </style>
    <linearGradient id="linear-gradient" x1="221.31" y1="162.21" x2="447.86" y2="162.21" gradientUnits="userSpaceOnUse">
      <stop offset="0" stop-color="#fdc161"/>
      <stop offset="1" stop-color="#fc7502"/>
    </linearGradient>
    <clipPath id="clippath-1">
      <path class="cls-7" d="m223.73,147.39C199.63,129.87,361.59-9.08,437.71,3.61c8.46,2.54,10.15,5.92,10.15,14.38s-4.23,11.84-2.54,19.45-3.38,8.46-5.07,15.22-9.3,0-7.61,8.46-6.77,3.38-5.92,12.69,0,9.3-3.38,16.07-4.23,17.76-7.61,23.68.85,21.14-2.54,25.37-6.77,14.38-10.15,21.14-6.77,11.84-6.77,11.84c0,0,11.84.85,10.99,8.46s-4.23,20.3-.85,26.22-7.61,19.45-5.07,24.53-4.23,10.15-2.54,19.45-21.99,10.99-20.3,18.61-10.15,13.53-10.15,21.99-1.69,12.69-10.99,16.92-20.3,16.92-25.37,12.69-45.67-29.6-44.83-45.67-54.13-120.94-63.43-127.71Z"/>
    </clipPath>
    <linearGradient id="linear-gradient-2" x1="7.05" y1="252.71" x2="310.06" y2="252.71" xlink:href="#linear-gradient"/>
    <linearGradient id="linear-gradient-3" x1="7.05" y1="252.71" x2="310.06" y2="252.71" xlink:href="#linear-gradient"/>
    <clipPath id="clippath-2">
      <path class="cls-18" d="m188.42,164.92c-9.4-3.13-31.84-6.79-61.59,1.57s-66.81,18.27-80.91,27.14S4.16,218.69,7.3,240.09s9.4,12.01,14.09,15.66,1.57,5.22,7.83,8.35,10.96-1.04,18.79,2.61,11.48-2.61,18.27-1.04,7.83,4.7,15.66,5.74,2.61-5.74,8.87-1.57,6.79,2.61,12.53,4.7,3.65,7.83,13.05,7.83,8.87,7.31,17.75,7.83,9.92,6.79,20.88,6.26,1.57,10.44,10.96,11.48,9.4,12.01,16.18,13.57-1.57,4.18,11.48,6.79,13.57,5.74,21.92,7.31,17.75,9.4,23.49,8.35.52-9.4,5.22-8.35,16.7,7.31,18.27,3.65,9.92,4.18,14.62,4.18,9.92-9.92,16.7-9.92,16.7-2.09,16.18-8.87-21.4-44.37-29.75-51.15-68.9-73.6-77.25-87.17-14.62-21.4-14.62-21.4Z"/>
    </clipPath>
    <radialGradient id="radial-gradient" cx="205.71" cy="72.08" fx="205.71" fy="72.08" r="47.09" gradientUnits="userSpaceOnUse">
      <stop offset="0" stop-color="#593b19"/>
      <stop offset="1" stop-color="#352724"/>
    </radialGradient>
    <radialGradient id="radial-gradient-2" cx="133.13" cy="127.54" fx="133.13" fy="127.54" r="47.46" xlink:href="#radial-gradient"/>
    <radialGradient id="radial-gradient-3" cx="203.09" cy="146.45" fx="203.09" fy="146.45" r="27.96" gradientUnits="userSpaceOnUse">
      <stop offset="0" stop-color="#593b19"/>
      <stop offset=".42" stop-color="#563919"/>
      <stop offset=".68" stop-color="#4d341c"/>
      <stop offset=".89" stop-color="#3f2c20"/>
      <stop offset="1" stop-color="#352724"/>
    </radialGradient>
    <radialGradient id="radial-gradient-4" cx="240.86" cy="216.07" fx="240.86" fy="216.07" r="110.52" xlink:href="#radial-gradient"/>
    <radialGradient id="radial-gradient-5" cx="240.86" cy="216.07" fx="240.86" fy="216.07" r="110.52" xlink:href="#radial-gradient"/>
    <clipPath id="clippath-3">
      <path class="cls-14" d="m199.96,150.46c-12.23,8.39-14.87,17.18-11.04,26.53,5.65,13.8,85.29,105.1,97.04,108.72s8.14-8.14,7.23-12.66-59.96-118.96-63.28-122.05c-6.74-6.26-19.81-7.5-29.95-.54Z"/>
    </clipPath>
    <radialGradient id="radial-gradient-6" cx="217.87" cy="174.8" fx="217.87" fy="174.8" r="36.88" gradientUnits="userSpaceOnUse">
      <stop offset="0" stop-color="#593b19"/>
      <stop offset=".51" stop-color="#635315"/>
      <stop offset=".66" stop-color="#4f401b"/>
      <stop offset=".86" stop-color="#3c2d21"/>
      <stop offset="1" stop-color="#352724"/>
    </radialGradient>
  </defs>
  <g id="Layer_1-2" data-name="Layer 1">
    <g>
      <path class="cls-9" d="m184.22,171.22c-9.4-3.13-31.84-6.79-61.59,1.57s-66.81,18.27-80.91,27.14S-.04,224.98,3.1,246.38s9.4,12.01,14.09,15.66,1.57,5.22,7.83,8.35,10.96-1.04,18.79,2.61,11.48-2.61,18.27-1.04,7.83,4.7,15.66,5.74,2.61-5.74,8.87-1.57,6.79,2.61,12.53,4.7,3.65,7.83,13.05,7.83,8.87,7.31,17.75,7.83,9.92,6.79,20.88,6.26,1.57,10.44,10.96,11.48,9.4,12.01,16.18,13.57-1.57,4.18,11.48,6.79,13.57,5.74,21.92,7.31,17.75,9.4,23.49,8.35.52-9.4,5.22-8.35,16.7,7.31,18.27,3.65,9.92,4.18,14.62,4.18,9.92-9.92,16.7-9.92,16.7-2.09,16.18-8.87-21.4-44.37-29.75-51.15-68.9-73.6-77.25-87.17-14.62-21.4-14.62-21.4Z"/>
      <path class="cls-9" d="m231.08,149.49C206.98,131.97,368.94-6.98,445.06,5.71c8.46,2.54,10.15,5.92,10.15,14.38s-4.23,11.84-2.54,19.45-3.38,8.46-5.07,15.22-9.3,0-7.61,8.46-6.77,3.38-5.92,12.69,0,9.3-3.38,16.07-4.23,17.76-7.61,23.68.85,21.14-2.54,25.37-6.77,14.38-10.15,21.14-6.77,11.84-6.77,11.84c0,0,11.84.85,10.99,8.46s-4.23,20.3-.85,26.22-7.61,19.45-5.07,24.53-4.23,10.15-2.54,19.45-21.99,10.99-20.3,18.61-10.15,13.53-10.15,21.99-1.69,12.69-10.99,16.92-20.3,16.92-25.37,12.69-45.67-29.6-44.83-45.67-54.13-120.94-63.43-127.71Z"/>
      <g>
        <path class="cls-7" d="m223.73,147.39C199.63,129.87,361.59-9.08,437.71,3.61c8.46,2.54,10.15,5.92,10.15,14.38s-4.23,11.84-2.54,19.45-3.38,8.46-5.07,15.22-9.3,0-7.61,8.46-6.77,3.38-5.92,12.69,0,9.3-3.38,16.07-4.23,17.76-7.61,23.68.85,21.14-2.54,25.37-6.77,14.38-10.15,21.14-6.77,11.84-6.77,11.84c0,0,11.84.85,10.99,8.46s-4.23,20.3-.85,26.22-7.61,19.45-5.07,24.53-4.23,10.15-2.54,19.45-21.99,10.99-20.3,18.61-10.15,13.53-10.15,21.99-1.69,12.69-10.99,16.92-20.3,16.92-25.37,12.69-45.67-29.6-44.83-45.67-54.13-120.94-63.43-127.71Z"/>
        <g class="cls-4">
          <path class="cls-5" d="m473.45-9.29c-10.55,3.19-205.53,55.75-237.14,140.09-31.61,84.34,6.03,39.19,13.32,23.99,3.79-7.9,18.82-29.95,33.78-50.32,3.66-4.99,7.32-9.88,10.81-14.44,9.66-12.61,18.02-22.68,21.54-25.26,10-7.33,139.6-46,146.44-44.57s-5.26,31.24-6.32,35.81c-1.06,4.58-142.74,29.86-148.46,31.75s-10.37,5.64-17.15,12.11-12.28,23.69-12.28,23.69c0,0,165.41-47.31,173.68-37.36,8.27,9.95,6.68,41.99-10.53,40.03-55.48-6.32-200.58,48.16-202.88,58.08-2.3,9.92,168.04-16.01,189.54-11.03,21.5,4.98-2.81,47.05-2.81,47.05,0,0-92.35-29.45-103.63-29.65s-63.69,14.2-63.69,14.2c0,0,151.39,34.24,154.28,41.34,2.89,7.1-8.16,25.45-8.16,25.45,0,0-133.6-46.81-144.52-48.54s136.89,68.48,138.53,77.7c1.64,9.22-16.4,21.93-21.24,20.01s-94.13-68.44-101.84-71.02"/>
        </g>
      </g>
      <g>
        <path class="cls-19" d="m188.42,164.92c-9.4-3.13-31.84-6.79-61.59,1.57s-66.81,18.27-80.91,27.14S4.16,218.69,7.3,240.09s9.4,12.01,14.09,15.66,1.57,5.22,7.83,8.35,10.96-1.04,18.79,2.61,11.48-2.61,18.27-1.04,7.83,4.7,15.66,5.74,2.61-5.74,8.87-1.57,6.79,2.61,12.53,4.7,3.65,7.83,13.05,7.83,8.87,7.31,17.75,7.83,9.92,6.79,20.88,6.26,1.57,10.44,10.96,11.48,9.4,12.01,16.18,13.57-1.57,4.18,11.48,6.79,13.57,5.74,21.92,7.31,17.75,9.4,23.49,8.35.52-9.4,5.22-8.35,16.7,7.31,18.27,3.65,9.92,4.18,14.62,4.18,9.92-9.92,16.7-9.92,16.7-2.09,16.18-8.87-21.4-44.37-29.75-51.15-68.9-73.6-77.25-87.17-14.62-21.4-14.62-21.4Z"/>
        <g class="cls-3">
          <path class="cls-5" d="m13.48,257.56c4.92-9.13,68.12-75.84,148.17-87.08s33,14.04,18.26,17.56c-7.67,1.83-29.96,11.06-50.78,20.59-5.1,2.33-10.11,4.69-14.79,6.95-12.97,6.27-23.45,11.87-26.42,14.6-8.43,7.72-25.7,35.12-25.84,41.79s18.82,12.99,23.03,12.99,21.77-52.67,24.58-57.58,7.02-8.43,14.04-13.34,23.17-6.32,23.17-6.32c0,0-43.54,80.05-36.52,89.89s33,9.13,40.03-5.62,48.45-108.14,57.58-108.14-43.54,123.59-43.54,144.66,43.54,18.26,43.54,18.26c0,0-13.34-73.73-11.24-84.27s25.28-56.18,25.28-56.18c0,0-.7,148.17,4.92,152.38s23.88-2.11,23.88-2.11c0,0-15.45-118.68-14.75-129.21s33.71,126.4,41.43,129.91,22.47-10.53,21.77-15.45-36.52-83.57-37.22-91.29"/>
        </g>
      </g>
      <path class="cls-6" d="m431.64,15.47c-2.08-9.43,6.34-11.61-8.63-15.23-14.97-3.62-98.7,34.81-126.67,61.83,0,0,24.66,11.27,38.29,16.71-11.47,2.83-29.8,13.81-29.16,18.93.91,7.25-15.4,22.65-15.4,22.65,16.31-3.62,42.58-8.15,48.93,1.81s8.15,13.59,8.15,18.12-6.34,11.78,5.44,11.78,19.93,2.72,19.03-8.15,0-12.68.91-18.12c.91-5.44-9.06,2.72-10.87-6.34-1.81-9.06-5.44-20.84-9.97-18.12s-18.12,11.78-17.21,4.53c.85-6.83,9.75-15.27,9.26-23.8.66.12.48-.2-.09-.9-.03-.22-.06-.44-.11-.67-.21-1.03-.88-1.68-1.89-2.04-1.12-1.81-2.13-4.23-1.82-7.15.96-9.11,2.61-15.07,8.41-21.63,5.81-6.55,10.97,12.41,9.7,24.55-1.28,12.14,12.57-2.77,12.57-2.77,0,0,8.9,22.42,11.35,18.59,2.45-3.84,19.92-14.28,13.37-.64s-3.62,14.97-7.35,30.95c-3.73,15.98,1.39,6.29-4.85,16.89-6.23,10.6-.69,16.3,4.37,16.83s8.47-12.41,8.52-22.64c.05-10.23,5.11-9.69,4.85-16.89-.27-7.19,8.2-19.6,8.95-26.69s10.6-13.21,11.24-19.28,12.3-9.96,15.82-23.92c3.51-13.96-3.04-19.76-5.12-29.19Z"/>
      <g class="cls-1">
        <path class="cls-9" d="m387.8,62.41c-3.84,4.72-.96,11.8,2.88,12.58s14.38,1.57,12.46-5.51.96-19.66-9.59-12.58-5.75,5.51-5.75,5.51Z"/>
        <path class="cls-9" d="m405.48,46.1c-4.45,1.48-3.32,7.88-.41,8.3s4.98-2.07,7.05-2.49-.41-7.88-6.64-5.81Z"/>
        <path class="cls-9" d="m406.73,27.85c-4.39,1.76-4.98,8.3-.41,8.3s10.78-1.24,9.13-2.9-6.64-6.22-8.71-5.39Z"/>
        <path class="cls-9" d="m396.77,7.94c-4.98,1.66-15.76,3.73-15.35,8.3s-1.24,9.54,5.39,9.54,21.57,0,17.84-2.49,2.9-4.56-.83-4.56,3.32-2.07-.83-3.32-1.24-4.56-3.32-4.56-2.9-2.9-2.9-2.9Z"/>
        <path class="cls-9" d="m334.97,39.88c1.66-.41,14.93-9.96,14.1-8.3s-2.49,4.56,0,4.15,6.64.41,4.15,2.07-12.86,9.96-15.76,9.96-4.56,2.07-2.9,0,2.49,1.24,1.66-2.07-1.24-5.81-1.24-5.81Z"/>
        <path class="cls-9" d="m347.83,53.57c1.66,1.24,5.81,1.24,5.39,4.56s-2.49,6.22.41,6.22,8.3-1.24,10.78-1.24,4.15-1.24,6.64-2.49-2.07-.83-.41-3.32,3.32-7.05,1.24-7.88-3.32-4.15-5.81-2.9-18.25,7.05-18.25,7.05Z"/>
        <path class="cls-9" d="m336.63,50.67c1.66.83-.41,2.9,2.07,3.32l4.98.83s19.5-6.64,19.5-8.71.41-4.98-2.49-4.98-5.81-.41-7.88-.41-16.18,9.96-16.18,9.96Z"/>
        <path class="cls-9" d="m278.14,83.85c7.05-6.64,11.61-11.61,13.27-9.54s4.15-3.73,6.22.41,2.07,2.49,9.96,4.15,17.42,12.86,20.33,13.27,2.07,5.39-1.24,7.47-12.44,11.61-13.69,7.47-10.37-12.86-13.27-11.61-4.15-8.3-6.22-5.39-5.39,1.66-6.64-1.66-6.64,1.24-6.64,1.24l-2.07-5.81Z"/>
        <path class="cls-9" d="m405.01,157.12c-2.73,1.71-8.4-13.7,1.33-15.69s3.98,3.76,2.21,5.31-1.77,9.28-3.54,10.39Z"/>
        <path class="cls-9" d="m414.71,128.91c-1.22,2.45-11.75-9.65-5.67-14.67s4.41,2.09,3.81,4.08,2.66,9,1.87,10.59Z"/>
        <path class="cls-9" d="m415.69,101.47c-2.27,1.53-5.47-14.19,2.29-15.56s2.81,3.99,1.3,5.43-2.12,9.14-3.59,10.13Z"/>
        <path class="cls-9" d="m426.27,79.42c-2.25,1.28-5.63-12.17,2.1-13.25,7.74-1.08,2.85,3.44,1.37,4.64s-2.01,7.78-3.47,8.6Z"/>
        <path class="cls-9" d="m446.92,42.61c-1.3,1.79-8.78-7.08-3.12-10.74s3.47,1.54,2.74,2.99,1.22,6.59.38,7.75Z"/>
        <path class="cls-9" d="m438.61,50.13c-1.91.85-5.31,2.21-4.2,3.54s3.76,3.09,5.31.88,2.21-3.76,1.55-3.98-.66-1.33-2.65-.44Z"/>
        <path class="cls-9" d="m446.13,17.64c-1.77,0-4.42,2.21-3.76,3.76s2.43,3.09,3.76,2.43,0-6.19,0-6.19Z"/>
        <path class="cls-9" d="m442.15,7.47c-.44,1.99-.22,3.32,1.77,3.98s2.43-2.21,1.33-2.87-3.09-1.11-3.09-1.11Z"/>
      </g>
      <g class="cls-1">
        <path class="cls-12" d="m360.18,193.93c-6.43,0-6.43,9.35-1.17,9.93s9.35,8.77,13.44,4.68,7.01-6.43,2.92-11.1-15.19-3.51-15.19-3.51Z"/>
        <path class="cls-12" d="m356.68,212.04c-3.4,2.27,2.92,11.69,7.01,11.69s9.35.58,7.6-4.09-7.6-12.27-14.61-7.6Z"/>
        <path class="cls-12" d="m356.68,234.83c-1.17,5.26-2.34,11.1,1.75,11.1s10.52-4.09,8.18-7.6-9.93-3.51-9.93-3.51Z"/>
        <path class="cls-12" d="m339.15,248.86c-3.51,4.09-4.68,14.03.58,15.19s8.77,4.68,9.35-1.17-2.92-13.44-2.92-13.44l-7.01-.58Z"/>
        <path class="cls-12" d="m368.37,178.73c-5.26,4.68,2.34,9.93,7.01,10.52s0-10.52,3.51-7.01,8.18,6.43,8.18,10.52-11.69,21.62-7.6,22.21,8.18-17.53,12.27-13.44,7.6,10.52,11.69,8.77,5.26-8.77-.58-11.1-9.93-.58-9.93-5.84-4.68-12.27-1.75-10.52,9.35,2.34,12.27,2.34-.58-7.01-5.84-9.93-8.77-.58-14.03-.58-15.19,4.09-15.19,4.09Z"/>
        <path class="cls-12" d="m379.97,222.17c-3.61,4.27-6.9,10.51-3.61,12.48s7.22-2.63,7.22-4.93,2.3-6.57.33-7.55l-1.97-.99-1.97.99Z"/>
        <path class="cls-12" d="m392.12,218.23c-6.9,1.31-4.27-1.31-4.6,5.58s2.63,5.25,5.25,6.9,9.85,6.9,9.85,2.3.99-9.52-2.96-9.85-7.55-4.93-7.55-4.93Z"/>
        <path class="cls-12" d="m385.23,236.94c-1.97,2.96-2.3,4.27-4.6,4.6s3.94,5.25,2.63,7.22-5.91,3.61-3.61,4.27,5.91,1.97,7.22,3.61,4.6,2.96,6.57,1.64,0-10.18,0-10.18c0,0-2.63-.99-3.28-1.97s-4.93-9.19-4.93-9.19Z"/>
        <path class="cls-12" d="m364.21,262.55c.33,3.28-2.3,14.12.33,13.13s4.6-3.94,6.57-.33,2.63.33,4.93.99.66-5.91.99-7.88-3.94-1.64-2.3-4.6-10.51-1.31-10.51-1.31Z"/>
        <path class="cls-12" d="m358.3,264.2c-2.96,3.61-7.88,7.22-7.88,11.16s.66,5.91,3.28,3.94,8.21-8.87,7.88-11.82-3.28-3.28-3.28-3.28Z"/>
        <path class="cls-12" d="m375.05,247.45c-1.06-3.45-9.52,3.61-9.52,5.91s.99,3.94,3.61,2.96,7.22-4.6,5.91-8.87Z"/>
        <path class="cls-12" d="m325.47,303.92c-3.28-4.93-2.3-10.84,2.63-10.51s7.22-2.63,6.24-6.24-1.64.66,3.94,0,6.24-.99,11.16-1.64,11.49-8.54,11.49-4.6,2.3,5.58,3.61,8.54,6.9,11.16,1.31,12.81-17.07,4.27-17.07-.99-3.61-6.57-7.88-4.93-9.52,4.27-9.19,7.22,4.6,10.84,1.31,10.18-11.49-1.97-9.85-4.6,2.3-5.25,2.3-5.25Z"/>
      </g>
      <path class="cls-6" d="m13.09,239.82c-6.3-6.79-12.74-1.46-7.22-15.07,5.52-13.61,43.46-45.49,121.13-59.13,0,0-6.09,20.14-9.42,33.71,8.67-7.35,27.63-15.54,31.32-12.23,5.23,4.69,26.56.5,26.56.5-12.01,10.67-30.32,28.57-25.99,38.97s6.19,13.8,9.77,16.29,12.88,1.55,6.28,10.69c-6.6,9.14-9.02,16.96-17.12,10.29-8.1-6.68-10.04-6.97-14.85-9.26-4.81-2.28,7.23-5.54,1.07-11.92-6.16-6.39-13.45-15.67-8.76-17.7,4.69-2.02,19.48-7.59,13.23-10.87-5.88-3.09-17.55-.83-24.03-5.9-.28.58-.42.26-.66-.56-.16-.15-.32-.29-.47-.45-.7-.72-.83-1.61-.56-2.59-.8-1.86-2.16-3.98-4.64-5.34-7.75-4.26-13.39-6.26-21.83-5.36-8.44.9,3.67,15.34,14,21.02,10.33,5.68-9.24,8.23-9.24,8.23,0,0,12.76,19.23,8.35,19.02-4.41-.21-22.47,7.61-8,10.02s13.88,5.42,28.61,11.31c14.74,5.89,4.2,4.53,16.08,5.52,11.88.99,13.29,8.42,10.87,12.64s-14.57-.25-22.69-5.83c-8.12-5.58-10.54-1.36-16.08-5.52-5.54-4.16-20.11-4.41-26.14-7.72-6.02-3.32-16.4.96-21.56-1.88s-14.78,4.07-27.8-.87c-13.02-4.94-13.94-13.22-20.24-20.01Z"/>
      <g class="cls-1">
        <path class="cls-12" d="m194.38,282.45c3.6-4.99,11,.15,8.52,4.55s1.7,12.07-3.83,13c-5.53.93-9.02,1.91-10.43-3.84-1.41-5.74,5.74-13.72,5.74-13.72Z"/>
        <path class="cls-12" d="m210.68,289.69c3.7-1.39,7.61,8.69,5.32,11.87s-4.78,7.58-7.5,3.65-5.45-12.64,2.18-15.51Z"/>
        <path class="cls-12" d="m228.72,302.21c4.82,1.98,10.1,4.29,7.81,7.46-2.29,3.17-9.13,5.92-10.6,2.17-1.46-3.74,2.79-9.64,2.79-9.64Z"/>
        <path class="cls-12" d="m249.65,296.32c5.2-.47,13.72,4.08,11.7,8.8-2.02,4.72-1.21,9.37-6.17,6.61s-9-9.66-9-9.66l3.47-5.76Z"/>
        <path class="cls-12" d="m177.77,280.45c6.65-1.51,6.55,7.27,4.39,11.22s-8.33-5.78-7.52-1.13.5,9.88,3.74,12.13,23.66,2.81,21.83,6.31-18.46-3.29-17.52,2.14,4.07,11.68.39,13.89-9.89-.74-8.46-6.56,5.11-8.03.94-10.92-7.09-10.37-7.34-7.14c-.25,3.23-3.39,8.54-5.03,10.81s-5.22-4.31-4.59-10,4.45-7.12,7.4-11.21,11.75-9.54,11.75-9.54Z"/>
        <path class="cls-12" d="m205.64,313.33c5.4-.46,12.18.42,11.9,4.05s-6.13,4.16-7.95,2.9-6.49-1.83-6.16-3.9l.32-2.07,1.88-.99Z"/>
        <path class="cls-12" d="m195.72,320.6c4.9-4.63,1.35-4.03,6.99-.5,5.64,3.53,2.69,4.93,2.51,7.87s-.06,11.43-3.7,8.91c-3.64-2.53-8.09-4.47-6.14-7.71s.33-8.57.33-8.57Z"/>
        <path class="cls-12" d="m214.39,325.53c3.44.1,4.67.56,6.21-1.04s1.95,5.95,4.24,6.01,6.17-2.6,5.4-.46-1.75,5.67-1.19,7.59-.24,5.19-2.38,6-8.06-5.59-8.06-5.59c0,0,.69-2.58.28-3.63s-4.52-8.88-4.52-8.88Z"/>
        <path class="cls-12" d="m246.44,323.3c2.41,2.06,12.46,5.98,10.21,7.47s-5.7,1.4-3.94,4.92c1.75,3.51-1.21,2.22-1.98,4.36s-5.05-2.74-6.79-3.57.91-3.96-2.35-4.31,4.85-8.88,4.85-8.88Z"/>
        <path class="cls-12" d="m251.05,319.61c4.51-.31,10.13-2.15,13.25.02s4.31,3.76,1.28,4.71-11.62,1.5-13.77-.38-.76-4.35-.76-4.35Z"/>
        <path class="cls-12" d="m228.41,323.41c-2.14-2.72,8.2-5.4,10.01-4.14s2.57,2.93.31,4.43-7.69,3.08-10.33-.29Z"/>
        <path class="cls-12" d="m300.9,315.97c-2.06-5.26-7.29-7.74-9.79-3.74-2.5,4-6.13,4.16-8.43,1.41s1.44-.91-2.21,3.06-4.28,4.3-7.56,7.76-13.2,4.23-10.08,6.39c3.12,2.17,3.13,4.85,4.73,7.5s4.97,11.49,9.4,8.06c4.43-3.43,12.95-10.91,8.79-13.79-4.16-2.89-3.17-6.41.52-8.82s8.72-5.04,10.87-3.17,6,9.52,7.32,6.61c1.32-2.91,4.88-10,1.88-10.17s-5.45-1.1-5.45-1.1Z"/>
      </g>
      <g>
        <path class="cls-10" d="m287.57,211.42c5.4-2.7,14.85-2.25,18,2.7s10.8,17.1,8.55,17.1-12.6-2.7-17.1-6.3-9.45-13.5-9.45-13.5Z"/>
        <path class="cls-21" d="m309.17,210.97c.62-5.4,6.75,0,9-2.7s3.15-10.8,2.25-13.05,9.45,2.25,9.9,9,2.7,17.1-4.5,21.15-18-2.7-16.65-14.4Z"/>
        <path class="cls-21" d="m220.51,142.11s32.41-39.61,34.66-45.01c.9,8.55-6.3,13.5,1.35,14.85,4.95,4.05-.45,10.8,6.75,10.8s13.95-3.15,13.95-3.15c0,0,1.35,4.95,3.15,6.75s.45,8.1,4.05,12.15,6.75,6.75,11.7,6.75,9.45,7.2,12.15,7.2,58.86,7.81,80.38,1.89c-1.16,5.31-7.46,20.61-22.31,19.71s-24.31-7.65-32.86-4.95-9.9,5.4-14.85,5.4-8.1-6.75-13.95-5.4-.9,1.35-.9,6.3-4.5,24.76-7.2,24.76-9.45-9.9-10.8-19.8-11.25-23.86-19.8-23.86-42.31-13.5-42.31-13.5l-3.15-.9Z"/>
      </g>
      <g>
        <path class="cls-10" d="m230.12,248.94c-4.59,2.6-8.13,9.72-5.14,14.48s10.37,16.35,11.3,14.71,2.9-10.53,1.64-15.6c-1.26-5.07-7.8-13.58-7.8-13.58Z"/>
        <path class="cls-21" d="m220.74,264.48c-4.95-2.22-2.81,4.93-6.09,5.23s-10.7-3.05-12.28-4.82-1.98,8.01,3.7,11.68,13.74,10.44,20.25,7.19,5.14-14.48-5.59-19.28Z"/>
        <path class="cls-21" d="m174.06,161.88c-21.18-2.05-31.95,1.85-29.79,6.81,7.06,4.89,14.35,2.09,12.34,8.34,1.46,5.62,9.57,5.02,6.58,10.28s-8.54,8.62-8.54,8.62c0,0,3.74,3.44,4.56,5.64s6.85,4.34,8.87,8.97,3.06,8.27,1,11.88c-2.06,3.61,2.33,10.46,1.2,12.43s-17.69,46.82-31.78,59.59c5.09,1.78,21.01,4.76,26.4-6.52,5.4-11.28,3.46-21.53,9.36-26.43,5.9-4.9,8.81-4.55,10.87-8.16,2.06-3.61-2.5-9.26,1.11-12.86s1.55.01,5.85,2.46c4.3,2.45,23.38,8.97,24.5,7s-4.67-11.8-12.71-17.69c-8.04-5.89-16.05-20.02-12.49-26.26s-3.63-41.35-3.63-41.35c0,0-7.98-2.21-13.71-2.76Z"/>
      </g>
      <path class="cls-21" d="m129.21,165.13c-10.72,3.13,4.61,9.22,4.61,14.48s9.87-1.97,10.53,5.27-6.58,20.41,4.61,22.38,27.65,37.52,38.84,37.52,20.41,3.95,25.01,17.11,19.75,11.19,28.96,23.7-.66-5.92,9.22-1.32,19.75,23.7,28.3,23.7,6.58-24.36-1.97-35.55-32.25-17.11-34.89-38.18-1.32-19.09-19.09-27.65-36.86-39.49-44.1-42.13-34.23-3.95-50.03.66Z"/>
      <path class="cls-21" d="m246.35,102.7c8.21-7.42,6.4,7.18,10.95,8.81,4.54,1.63-5.03,8.64,1,11.51s19.83.16,17.76,11.26c-2.07,11.1,23.06,37.56,19.29,48.05-3.77,10.49-3.47,20.35,6.34,28.76,9.81,8.4,3,21.98,10.69,34.5,7.69,12.52-4.89-2.46-4.24,8.23.65,10.69,13.8,25.86,10.91,33.88s-23.24-1.39-30.01-12.88c-6.77-11.49-3.9-35.54-21.19-44.55-17.29-9-16.03-7.16-17.43-26.47-1.4-19.31-30.32-53.87-30.15-61.48.17-7.6,14.06-28.75,26.08-39.62Z"/>
      <g>
        <g>
          <path class="cls-20" d="m198.22,132.35l9.35-121.2c.22-2.84,2.7-4.96,5.54-4.74s4.96,2.7,4.74,5.54c0,.13-.03.27-.05.39l-18.59,120.12c-.04.27-.3.46-.57.42-.26-.04-.44-.28-.42-.53Z"/>
          <path class="cls-17" d="m191.77,143.35l-118.71-26.15c-2.78-.61-4.54-3.36-3.93-6.15.61-2.78,3.36-4.54,6.15-3.93.13.03.26.06.38.1l116.36,35.16c.26.08.41.36.33.62-.08.25-.33.4-.59.34Z"/>
        </g>
        <g>
          <path class="cls-15" d="m187.34,176.47c-1.5-6.3-9.68-45.13-9.92-53.66,3.4.72,2.97,8.22,6.42,5.19s-3.97-10.62-3.96-11.64c6.8,1.44,10.81,8.99,13.19,9.36s36.04,21.7,35.67,24.43-41.08,27.69-41.4,26.32Z"/>
          <g>
            <path class="cls-11" d="m198.89,127.8c5.93-2.88,15.5,4.4,13.61,8.07s-9.76.41-9.76.41c0,0-6.5-7.19-3.85-8.48Z"/>
            <path class="cls-11" d="m184.75,138.08c-5.93,2.87-6.16,14.89-2.11,15.68s6.37-7.4,6.37-7.4c0,0-1.61-9.56-4.26-8.28Z"/>
          </g>
        </g>
        <g>
          <g>
            <path class="cls-16" d="m199.96,150.46c-12.23,8.39-14.87,17.18-11.04,26.53,5.65,13.8,85.29,105.1,97.04,108.72s8.14-8.14,7.23-12.66-59.96-118.96-63.28-122.05c-6.74-6.26-19.81-7.5-29.95-.54Z"/>
            <g class="cls-2">
              <path class="cls-8" d="m236.27,254.55c3.11-14.22,20.29-26.64,32.5-33.27,7.98-4.05,11.23-5.3,16.08,3.47,1.57,2.92,2.78,5.99,3.73,9.16,0,0-.27.15-.27.15-10.35,6.03-20.62,12.31-30.16,19.58-2.38,1.82-4.68,3.75-6.78,5.88-2.04,2.06-4.22,4.51-3.66,7.63,1.01,5.93,6.46,10.03,11.28,13.04,0,0-.36.05-.36.05,7.33-7.75,14.76-15.41,22.74-22.52,3.07-2.61,6.05-5.41,9.72-7.22,5.94-2.46,11.93,9.55,14.04,13.85-5.76,2.99-11.49,6.06-17.15,9.25-5.42,3.13-11.14,6.1-15.96,10.08-.46.49-1.13.92-.95,1.65.07.68.63,1.1,1.33,1.34,2.15.7,4.91.46,6.87,1.98.48.33,1.33.2,2.05.03,1.5-.38,2.95-1.01,4.38-1.67,5.69-2.62,11.24-6.31,16.52-9.33-5.27,3.52-10.6,6.97-16.3,9.78-1.8.83-3.66,1.76-5.69,1.97-.42.02-.91-.02-1.33-.32-2.2-2.05-8.83-.3-8.56-4.4.21-.67.71-1.13,1.17-1.58,2.42-2.16,5.13-3.82,7.81-5.52,8.08-5.02,16.46-9.52,24.89-13.94,0,0-.23.68-.23.68-1.8-3.6-7.56-14.9-12.49-12.91-3.51,1.72-6.5,4.48-9.5,7-8.03,7.1-15.64,14.69-23.09,22.4-5.36-3.41-12.45-8.79-11.55-15.93.45-2.27,2.24-4.01,3.77-5.62,2.14-2.13,4.47-4.03,6.83-5.88,9.54-7.32,19.67-13.8,29.96-20,0,0-.18.45-.18.45-1.64-4.59-4.71-13.72-9.93-14.83-1.45-.12-3,.53-4.37,1.05-4.38,1.78-8.48,4.19-12.44,6.77-7.83,5.25-15.39,11.31-20.76,19.15-1.77,2.61-3.16,5.5-3.86,8.59,0,0-.1-.02-.1-.02h0Z"/>
            </g>
          </g>
          <path class="cls-13" d="m204,149.49c-1.55.9-1.78,3.45-2.9,4.41-1.35,1.15-4.24.64-5.09,1.91-.92,1.37-.96,3.35-1.43,4.92-.44,1.48-1.23,3.08-1.4,4.79-.15,1.51-.17,3.2-.2,4.93-.03,1.53.65,3.17.65,4.89,0,1.64,2,2.6,2.91,4.34.76,1.45-1.03,4.88.22,6.33,1.11,1.28,4.02,1.07,5.41,2.3,1.3,1.16,2.83,2.03,4.29,3.11s3.11,1.65,4.61,2.58,1.73,4.31,3.28,5.1c1.66.85,4.54-1.08,6.1-.46,1.81.72,3.02,2.68,4.57,3.03,2.17.49,4.14.51,5.41.09,1.7-.57,3.62-.17,4.93-.74,1.66-.72,2.42-2.75,3.46-3.77s2.69-2.1,3.13-3.86c.34-1.31.81-3.07.81-4.95,0-1.33-2.73-2.7-3.2-4.65-.36-1.49-.27-3.18-.86-4.9-.52-1.52.72-3.82.05-5.43-.64-1.52-.53-3.54-1.28-5.07s-1.68-3.07-2.51-4.54-2.96-2.28-3.89-3.65c-.97-1.44-2.19-2.71-3.22-3.96-1.14-1.37-3.86-.9-5.05-1.94-1.39-1.21-1.86-2.81-3.27-3.41-1.12-.48-2.67-3.3-4.82-3.32-1.73-.02-3.67,1.18-5.34,1.29-2.92.2-2.84-.13-5.36.65Z"/>
        </g>
      </g>
      <g class="cls-1">
        <path class="cls-9" d="m74.81,229.22c5.88-.37,9.88,5.55,8.35,8.85s-6.82,11.64-11.34,6.43-16.1-9.74-4.59-13.89,7.58-1.39,7.58-1.39Z"/>
        <path class="cls-9" d="m51.99,233.83c3.67-2.55,8.1,1.7,6.8,4.1s-4.43,2.64-5.92,3.97-6.01-4.5-.88-8.07Z"/>
        <path class="cls-9" d="m36.85,225.06c3.85-2.36,9.36.67,6.8,4.1s-7.03,7.44-7.41,5.31-1.2-8.29.61-9.41Z"/>
        <path class="cls-9" d="m26.67,206.99c4.1-2.86,11.79-9.85,15.17-7.11s8.25,4.14,4.53,9.12c-3.72,4.98-12.09,16.2-11.97,12.07s-5.24-.25-3.15-3.05-3.5,1.39-2.16-2.39c1.34-3.78-2.91-3.36-1.75-4.92s-.67-3.72-.67-3.72Z"/>
        <path class="cls-9" d="m86.59,177.56c-1.26,1.03-16.25,5.92-14.47,6.18s5.01.56,3.28,2.21-3.39,5.21-.68,4.22,15.09-4.36,16.71-6.54,4.2-2.32,1.63-2.18-.41,2.53-2.57.14-3.9-4.02-3.9-4.02Z"/>
        <path class="cls-9" d="m90.22,194.5c.05,1.91-2.27,5.02.59,6.48s6.32,1.44,4.69,3.62-5.64,5.57-7.03,7.44-3.31,2.45-5.69,3.66.51-2-2.39-2.08-7.44-1.26-6.94-3.26-1.42-4.7.96-5.91,15.81-9.96,15.81-9.96Z"/>
        <path class="cls-9" d="m94.2,184.55c-.27,1.69,2.53,1.23,1.46,3.32l-2.13,4.18s-16.18,11.11-17.82,10.01-4.17-2.34-2.54-4.52,2.93-4.58,4.09-6.14,16.95-6.85,16.95-6.85Z"/>
        <path class="cls-9" d="m151.92,167.88c-9.21,1.77-15.7,2.55-14.99,4.89s-5.28,1.13-3.16,4.89.81,2.88-2.3,9.68.41,19.92-.89,22.32,3.11,4.43,6.61,3.04,16.17-3.17,13.58-6.31-4.37-14.63-1.75-16.15-4.24-7.53-.78-7.54,4.34-3.17,2.41-5.87c-1.93-2.7,4.71-4.32,4.71-4.32l-3.43-4.65Z"/>
        <path class="cls-9" d="m140.12,292.52c2.88-1.14-6.14-13.6-13.17-7.35s.74,4.99,2.96,4.48,8.34,3.61,10.21,2.87Z"/>
        <path class="cls-9" d="m112.36,284.8c2.62.39-1.05-13.96-8.43-12.06-7.38,1.89-.82,4.43,1.09,5.03s5.64,6.78,7.34,7.03Z"/>
        <path class="cls-9" d="m90.09,270.94c2.48-.89-8.16-11.65-13.6-6.56s1.59,4.23,3.56,3.87,8.43,3.27,10.04,2.69Z"/>
        <path class="cls-9" d="m66.71,267.16c2.27-1.01-6.47-10.7-11.67-5.47-5.19,5.24,1.12,3.97,2.91,3.5s7.28,2.62,8.76,1.97Z"/>
        <path class="cls-9" d="m25.99,263.09c2.15-.02-.68-10.36-6.75-8.06s-.73,3.42.83,3.65,4.53,4.42,5.92,4.41Z"/>
        <path class="cls-9" d="m36.61,260.85c1.74-.98,4.72-2.81,5.15-1.27s.34,4.47-2.27,4.45-4.21-.34-4.02-.95-.68-1.2,1.14-2.23Z"/>
        <path class="cls-9" d="m6.68,249.22c.99-1.33,4.23-2.14,5.08-.82s1.09,3.47-.18,4.12-4.9-3.29-4.9-3.29Z"/>
        <path class="cls-9" d="m.86,240.82c1.82.73,2.75,1.6,2.16,3.44s-3.11.65-3.02-.53.86-2.91.86-2.91Z"/>
      </g>
    </g>
  </g>
</svg>