<?xml version="1.0" encoding="UTF-8"?>
<svg id="Layer_2" data-name="Layer 2" xmlns="http://www.w3.org/2000/svg" xmlns:xlink="http://www.w3.org/1999/xlink" viewBox="0 0 410.82 310.43">
  <defs>
    <style>
      .cls-1 {
        fill: url(#linear-gradient);
      }

      .cls-2 {
        fill: url(#radial-gradient-47);
      }

      .cls-3 {
        fill: url(#radial-gradient-48);
      }

      .cls-4 {
        fill: url(#radial-gradient-20);
      }

      .cls-5 {
        fill: url(#radial-gradient-21);
      }

      .cls-6 {
        fill: url(#radial-gradient-45);
      }

      .cls-7 {
        fill: url(#radial-gradient-46);
      }

      .cls-8 {
        fill: url(#radial-gradient-40);
      }

      .cls-9 {
        fill: url(#radial-gradient-30);
      }

      .cls-10 {
        fill: url(#radial-gradient-33);
      }

      .cls-11 {
        fill: url(#radial-gradient-32);
      }

      .cls-12 {
        fill: url(#radial-gradient-38);
      }

      .cls-13 {
        fill: url(#radial-gradient-31);
      }

      .cls-14 {
        fill: url(#radial-gradient-37);
      }

      .cls-15 {
        fill: url(#radial-gradient-36);
      }

      .cls-16 {
        fill: url(#radial-gradient-39);
      }

      .cls-17 {
        fill: url(#radial-gradient-26);
      }

      .cls-18 {
        fill: url(#radial-gradient-27);
      }

      .cls-19 {
        fill: url(#radial-gradient-22);
      }

      .cls-20 {
        fill: url(#radial-gradient-24);
      }

      .cls-21 {
        fill: url(#radial-gradient-23);
      }

      .cls-22 {
        fill: url(#radial-gradient-28);
      }

      .cls-23 {
        fill: url(#radial-gradient-29);
      }

      .cls-24 {
        fill: url(#radial-gradient-35);
      }

      .cls-25 {
        fill: url(#radial-gradient-34);
      }

      .cls-26 {
        fill: url(#radial-gradient-25);
      }

      .cls-27 {
        fill: url(#radial-gradient-41);
      }

      .cls-28 {
        fill: url(#radial-gradient-42);
      }

      .cls-29 {
        fill: url(#radial-gradient-44);
      }

      .cls-30 {
        fill: url(#radial-gradient-43);
      }

      .cls-31 {
        fill: url(#radial-gradient-49);
      }

      .cls-32 {
        fill: url(#radial-gradient-10);
      }

      .cls-33 {
        fill: url(#radial-gradient-19);
      }

      .cls-34 {
        fill: url(#radial-gradient-18);
      }

      .cls-35 {
        fill: url(#radial-gradient-17);
      }

      .cls-36 {
        fill: url(#radial-gradient-11);
      }

      .cls-37 {
        fill: url(#radial-gradient-16);
      }

      .cls-38 {
        fill: url(#radial-gradient-15);
      }

      .cls-39 {
        fill: url(#radial-gradient-12);
      }

      .cls-40 {
        fill: url(#radial-gradient-14);
      }

      .cls-41 {
        fill: url(#radial-gradient-13);
      }

      .cls-42 {
        fill: url(#radial-gradient-6);
      }

      .cls-43 {
        fill: url(#radial-gradient-5);
      }

      .cls-44 {
        fill: url(#radial-gradient-3);
      }

      .cls-45 {
        fill: url(#radial-gradient-4);
      }

      .cls-46 {
        fill: url(#radial-gradient-9);
      }

      .cls-47 {
        fill: url(#radial-gradient-8);
      }

      .cls-48 {
        fill: url(#radial-gradient-7);
      }

      .cls-49 {
        fill: url(#radial-gradient-2);
      }

      .cls-50 {
        fill: url(#linear-gradient-8);
      }

      .cls-51 {
        fill: url(#linear-gradient-9);
      }

      .cls-52 {
        fill: url(#linear-gradient-3);
      }

      .cls-53 {
        fill: url(#linear-gradient-4);
      }

      .cls-54 {
        fill: url(#linear-gradient-2);
      }

      .cls-55 {
        fill: url(#linear-gradient-6);
      }

      .cls-56 {
        fill: url(#linear-gradient-7);
      }

      .cls-57 {
        fill: url(#linear-gradient-5);
      }

      .cls-58 {
        fill: url(#radial-gradient);
      }

      .cls-59 {
        fill: url(#linear-gradient-13);
      }

      .cls-60 {
        fill: url(#linear-gradient-12);
      }

      .cls-61 {
        fill: url(#linear-gradient-10);
      }

      .cls-62 {
        fill: url(#linear-gradient-11);
      }
    </style>
    <radialGradient id="radial-gradient" cx="55.99" cy="116.23" fx="55.99" fy="116.23" r="69.27" gradientUnits="userSpaceOnUse">
      <stop offset=".08" stop-color="#bb904e"/>
      <stop offset=".64" stop-color="#dbc19a"/>
      <stop offset="1" stop-color="#f3e6d4"/>
    </radialGradient>
    <radialGradient id="radial-gradient-2" cx="67.55" cy="156.1" fx="67.55" fy="156.1" r="36.97" gradientUnits="userSpaceOnUse">
      <stop offset="0" stop-color="#2c1f17"/>
      <stop offset=".8" stop-color="#2c1f17"/>
      <stop offset="1" stop-color="#694338"/>
    </radialGradient>
    <radialGradient id="radial-gradient-3" cx="190.17" cy="30.32" fx="190.17" fy="30.32" r="33.78" gradientUnits="userSpaceOnUse">
      <stop offset="0" stop-color="#2c1f17"/>
      <stop offset=".53" stop-color="#81441d"/>
      <stop offset=".8" stop-color="#2c1f17"/>
      <stop offset="1" stop-color="#694338"/>
    </radialGradient>
    <radialGradient id="radial-gradient-4" cx="284.96" cy="116.11" fx="284.96" fy="116.11" r="98.92" gradientUnits="userSpaceOnUse">
      <stop offset="0" stop-color="#dbc19a"/>
      <stop offset="1" stop-color="#f3e6d4"/>
    </radialGradient>
    <radialGradient id="radial-gradient-5" cx="232.78" cy="153.22" fx="232.78" fy="153.22" r="71.24" xlink:href="#radial-gradient-3"/>
    <radialGradient id="radial-gradient-6" cx="101.86" cy="193.79" fx="74.26" fy="193.79" r="91.77" xlink:href="#radial-gradient"/>
    <linearGradient id="linear-gradient" x1="181.07" y1="139.32" x2="290.03" y2="181.23" gradientUnits="userSpaceOnUse">
      <stop offset="0" stop-color="#edcbc9"/>
      <stop offset="1" stop-color="#e0837b"/>
    </linearGradient>
    <linearGradient id="linear-gradient-2" x1="252.4" y1="54.52" x2="325.05" y2="88.86" gradientUnits="userSpaceOnUse">
      <stop offset="0" stop-color="#bb904e"/>
      <stop offset="1" stop-color="#543c1a"/>
    </linearGradient>
    <linearGradient id="linear-gradient-3" x1="286.79" y1="72.76" x2="340.88" y2="98.32" xlink:href="#linear-gradient-2"/>
    <linearGradient id="linear-gradient-4" x1="280.15" y1="110.8" x2="300.8" y2="120.56" xlink:href="#linear-gradient-2"/>
    <linearGradient id="linear-gradient-5" x1="299.46" y1="101.5" x2="319.15" y2="110.8" xlink:href="#linear-gradient-2"/>
    <linearGradient id="linear-gradient-6" x1="307.79" y1="94.62" x2="355.39" y2="94.62" xlink:href="#linear-gradient-2"/>
    <linearGradient id="linear-gradient-7" x1="329.79" y1="79.91" x2="367.65" y2="79.91" xlink:href="#linear-gradient-2"/>
    <linearGradient id="linear-gradient-8" x1="348.37" y1="68.24" x2="381.78" y2="68.24" gradientUnits="userSpaceOnUse">
      <stop offset="0" stop-color="#bb904e"/>
      <stop offset="1" stop-color="#322c15"/>
    </linearGradient>
    <linearGradient id="linear-gradient-9" x1="366.78" y1="50.31" x2="392.56" y2="50.31" xlink:href="#linear-gradient-8"/>
    <radialGradient id="radial-gradient-7" cx="190.2" cy="48.98" fx="190.2" fy="48.98" r="30.44" xlink:href="#radial-gradient-4"/>
    <radialGradient id="radial-gradient-8" cx="108.87" cy="49.47" fx="108.87" fy="49.47" r="25.34" xlink:href="#radial-gradient-4"/>
    <linearGradient id="linear-gradient-10" x1="37.92" y1="158.47" x2="91.04" y2="158.47" xlink:href="#linear-gradient"/>
    <radialGradient id="radial-gradient-9" cx="83.46" cy="166.69" fx="83.46" fy="166.69" r="9.93" xlink:href="#radial-gradient-4"/>
    <radialGradient id="radial-gradient-10" cx="55.62" cy="79.99" fx="55.62" fy="79.99" r="44.8" xlink:href="#radial-gradient-2"/>
    <linearGradient id="linear-gradient-11" x1="16.01" y1="67.13" x2="112.88" y2="67.13" xlink:href="#linear-gradient-2"/>
    <linearGradient id="linear-gradient-12" x1="155.69" y1="75.12" x2="168.1" y2="75.12" xlink:href="#linear-gradient-2"/>
    <radialGradient id="radial-gradient-11" cx="43.21" cy="123.23" fx="35.47" fy="123.23" r="25.72" xlink:href="#radial-gradient-2"/>
    <radialGradient id="radial-gradient-12" cx="28.33" cy="112.34" fx="28.33" fy="112.34" r="13.84" xlink:href="#radial-gradient-2"/>
    <radialGradient id="radial-gradient-13" cx="19.98" cy="101.5" fx="19.98" fy="101.5" r="12.52" xlink:href="#radial-gradient-2"/>
    <radialGradient id="radial-gradient-14" cx="15.82" cy="89.4" fx="15.82" fy="89.4" r="10.43" xlink:href="#radial-gradient-2"/>
    <radialGradient id="radial-gradient-15" cx="13.84" cy="78.14" fx="13.84" fy="78.14" r="7.26" xlink:href="#radial-gradient-2"/>
    <radialGradient id="radial-gradient-16" cx="10.85" cy="61.68" fx="10.85" fy="61.68" r="8.48" xlink:href="#radial-gradient-2"/>
    <radialGradient id="radial-gradient-17" cx="9.72" cy="107.12" fx="1.94" fy="107.12" r="25.87" xlink:href="#radial-gradient-2"/>
    <linearGradient id="linear-gradient-13" x1="20.1" y1="69.19" x2="105.43" y2="69.19" xlink:href="#linear-gradient-2"/>
    <radialGradient id="radial-gradient-18" cx="103.86" cy="247.67" fx="103.86" fy="247.67" r="6.73" xlink:href="#radial-gradient-4"/>
    <radialGradient id="radial-gradient-19" cx="111.46" cy="227.46" fx="111.46" fy="227.46" r="7.12" xlink:href="#radial-gradient-4"/>
    <radialGradient id="radial-gradient-20" cx="116.6" cy="202.34" fx="116.6" fy="202.34" r="7.81" xlink:href="#radial-gradient-4"/>
    <radialGradient id="radial-gradient-21" cx="128.26" cy="180.96" fx="128.26" fy="180.96" r="9.94" xlink:href="#radial-gradient-4"/>
    <radialGradient id="radial-gradient-22" cx="129.57" cy="218.47" fx="129.57" fy="218.47" r="35.46" xlink:href="#radial-gradient-4"/>
    <radialGradient id="radial-gradient-23" cx="139.96" cy="59.46" fx="139.96" fy="59.46" r="7.34" gradientTransform="translate(-54.09 163.93) rotate(-17.17)" xlink:href="#radial-gradient-4"/>
    <radialGradient id="radial-gradient-24" cx="103.5" cy="197.52" fx="103.5" fy="197.52" r="3.69" xlink:href="#radial-gradient-4"/>
    <radialGradient id="radial-gradient-25" cx="89.73" cy="203.74" fx="89.73" fy="203.74" r="2.95" xlink:href="#radial-gradient-4"/>
    <radialGradient id="radial-gradient-26" cx="89.75" cy="248.59" fx="89.75" fy="248.59" r="30.63" xlink:href="#radial-gradient-4"/>
    <radialGradient id="radial-gradient-27" cx="158.34" cy="75.03" fx="158.34" fy="75.03" r="4.17" xlink:href="#radial-gradient-2"/>
    <radialGradient id="radial-gradient-28" cx="127.72" cy="107.95" fx="127.72" fy="107.95" r="44.09" xlink:href="#radial-gradient-2"/>
    <radialGradient id="radial-gradient-29" cx="136.18" cy="170.18" fx="136.18" fy="170.18" r="11.85" xlink:href="#radial-gradient-2"/>
    <radialGradient id="radial-gradient-30" cx="122.29" cy="193.39" fx="122.29" fy="193.39" r="8.62" xlink:href="#radial-gradient-2"/>
    <radialGradient id="radial-gradient-31" cx="113.82" cy="216.35" fx="113.82" fy="216.35" r="7.54" xlink:href="#radial-gradient-2"/>
    <radialGradient id="radial-gradient-32" cx="106.64" cy="235.68" fx="106.64" fy="235.68" r="5.69" xlink:href="#radial-gradient-2"/>
    <radialGradient id="radial-gradient-33" cx="106.84" cy="169.71" fx="106.84" fy="169.71" r="3.51" xlink:href="#radial-gradient-2"/>
    <radialGradient id="radial-gradient-34" cx="113.83" cy="170.03" fx="113.83" fy="170.03" r="2.97" xlink:href="#radial-gradient-2"/>
    <radialGradient id="radial-gradient-35" cx="106.89" cy="189.97" fx="106.89" fy="189.97" r="3.5" xlink:href="#radial-gradient-2"/>
    <radialGradient id="radial-gradient-36" cx="100.46" cy="192.88" fx="100.46" fy="192.88" r="3.47" xlink:href="#radial-gradient-2"/>
    <radialGradient id="radial-gradient-37" cx="92.62" cy="191.06" fx="92.62" fy="191.06" r="5.83" xlink:href="#radial-gradient-2"/>
    <radialGradient id="radial-gradient-38" cx="97.72" cy="168.76" fx="97.72" fy="168.76" r="3.93" xlink:href="#radial-gradient-2"/>
    <radialGradient id="radial-gradient-39" cx="80.64" cy="259.06" fx="80.64" fy="259.06" r="3.25" xlink:href="#radial-gradient-2"/>
    <radialGradient id="radial-gradient-40" cx="85.18" cy="259.03" fx="85.18" fy="259.03" r="1.76" xlink:href="#radial-gradient-2"/>
    <radialGradient id="radial-gradient-41" cx="83.13" cy="249.47" fx="83.13" fy="249.47" r="2.67" xlink:href="#radial-gradient-2"/>
    <radialGradient id="radial-gradient-42" cx="89.2" cy="249.58" fx="89.2" fy="249.58" r="1.23" xlink:href="#radial-gradient-2"/>
    <radialGradient id="radial-gradient-43" cx="86.89" cy="235.69" fx="86.89" fy="235.69" r="4.36" xlink:href="#radial-gradient-2"/>
    <radialGradient id="radial-gradient-44" cx="92.4" cy="238.6" fx="92.4" fy="238.6" r="1.51" xlink:href="#radial-gradient-2"/>
    <radialGradient id="radial-gradient-45" cx="95.09" cy="230.43" fx="95.09" fy="230.43" r="1.42" xlink:href="#radial-gradient-2"/>
    <radialGradient id="radial-gradient-46" cx="99.25" cy="213.77" fx="99.25" fy="213.77" r="6.18" xlink:href="#radial-gradient-2"/>
    <radialGradient id="radial-gradient-47" cx="87.18" cy="213.3" fx="87.18" fy="213.3" r="5.46" xlink:href="#radial-gradient-2"/>
    <radialGradient id="radial-gradient-48" cx="81.19" cy="291.15" fx="81.19" fy="291.15" r="6.51" xlink:href="#radial-gradient-2"/>
    <radialGradient id="radial-gradient-49" cx="78.35" cy="262.49" fx="78.35" fy="262.49" r="30.2" xlink:href="#radial-gradient-2"/>
  </defs>
  <g id="Layer_1-2" data-name="Layer 1">
    <g>
      <path class="cls-58" d="m93.09,186.15c-12.27,5.76-18.03,9.94-22.17,9.34s-8.86,3.55-10.64-1.18-1.77-11.23-5.32-11.23-32.5-21.27-24.82-40.78c-10.64,1.77-30.14-39-30.14-46.1s4.73-40.78,6.5-45.5,8.27-15.96,18.32-14.77,84.51,53.78,86.87,56.14-10.03,90.05-18.61,94.07Z"/>
      <path class="cls-49" d="m102.24,121.04c-2.27-6.12-10.64,20.09-11.23,16.55-.74-4.44-10.64-7.09-14.18-7.09s-34.87,0-44.32,8.27,6.5,40.78,18.32,41.37c3.55,5.32,12.41,7.68,12.41,11.23,2.95,0,10.05-2.95,10.05-2.95,0,0,5.32-3.55,7.68-2.36s-1.77,4.73,2.95,4.73,7.69,3.74,9.46-1.38,8.15-27.2,8.15-27.2c0,0,8.4-20.47.72-41.15Z"/>
      <path class="cls-44" d="m153.26,57.94c1.7-6.25,14.76-56.79,24.42-57.92,1.67-.2,4.1.93,7,2.93,13.9,9.58,38.64,39.19,42.4,39.66-8.52-1.7-43.73-38.61-47.7-37.48-3.98,1.14-20.44,53.38-21.01,55.08s-5.11-2.27-5.11-2.27Z"/>
      <path class="cls-45" d="m161.48,172.6c1.9,6.78,9.12,27.72,25.89,27.72s21.52,3.28,25.16,1.09,5.47,4.38,10.94.73,13.49-13.86,21.88-13.86,56.89-15.32,62-36.1c-2.19-9.85-3.28-15.32-5.47-15.32,5.11,2.19,10.94,5.11,13.86,3.28,2.92-1.82,35.74-26.99,39.39-30.63s16.78-16.41,18.6-18.23,6.2-9.85,7.66-9.85-.73-2.92,3.65-4.01c4.38-1.09,5.11-9.48,7.66-9.85s0-4.74,2.55-5.11,3.28-4.74,5.11-4.74,9.48-12.4,8.39-13.49,1.46-2.19-1.09-5.11-14.22-13.49-41.21-9.12c-26.99,4.38-181.98,63.82-192.92,68.93-4.01-5.47-14.59,64.55-12.03,73.67Z"/>
      <path class="cls-43" d="m165.32,112.12c0,6.33,1.81,5.88,2.26,13.12s3.62,11.76,1.81,13.57-4.98-6.79-4.98-1.81,4.52,18.55,2.26,18.55-7.24-8.59-7.24-4.98,0,9.95,1.81,9.95,6.33,1.36,7.69,4.07,5.43,24.43,8.14,26.24,19,3.62,23.97,4.07,7.69,4.07,12.21,3.17,4.07-3.17,5.43-3.17,11.31-2.26,12.67-3.62,12.67-8.14,13.57-8.59,13.12-.45,14.48-1.81,4.98-4.52,8.14-4.52,5.88-1.36,5.88-3.17,0-1.81,2.26-1.81,8.59-5.88,12.21-5.88,8.14-3.62,8.14-5.43,4.52-2.71,6.79-5.43,6.33-10.4-.45-17.64-42.36-3.17-53.38-3.17c-11.76,0-25.8-1-37.09,1.36s-12.21,5.43-18.09,5.43-13.57,4.98-13.57,2.26-4.07-14.02-1.36-14.02,20.36,2.26,22.62-2.26,18.09-4.52,18.55-6.79-29.86-16.28-38-9.95,3.62,9.05.45,9.95-1.36,4.98-3.62,4.52-13.57-12.21-13.57-12.21Z"/>
      <path class="cls-42" d="m73.07,307.66c-.39-7.87,2.75-44.05,3.54-50.34.79-6.29,0-12.19,2.36-20.06,2.36-7.87,8.65-25.96,8.65-28.71s3.93-11.8,2.36-18.49c-1.57-6.69,4.33-14.16,4.33-20.45s2.75-5.9,2.75-13.77,5.9-62.54,20.85-68.83c4.33-7.87,12.19-14.16,12.59-15.34.39-1.18,7.87-14.55,13.77-14.95,3.54-2.75,9.44-4.72,11.01-4.33,3.15-.79,12.19,3.93,10.62,12.59,1.97,3.15-3.15,13.37-1.97,16.52,1.18,3.15,9.05,14.95,8.65,17.31-.39,2.36-12.98,69.22-12.98,77.09s-2.75,33.04-5.9,34.22-10.23,23.99-12.19,26.35c-1.97,2.36-1.57,3.54-7.08,9.83-5.51,6.29-5.11,10.62-13.37,17.7-8.26,7.08-20.45,14.95-20.45,18.09s-13.37,16.13-16.13,19.67c-2.75,3.54-5.9,9.05-7.08,8.65s-4.33-2.75-4.33-2.75Z"/>
      <path class="cls-1" d="m172.65,155.45c.69-2.66,1.29-4.72,8.57-2.14s11.15,8.15,11.15,6.43-2.14-7.29,1.29-6.43,9.43,5.57,8.57,2.57-9.43-8.57-10.29-9.86,15.86,12.86,18.01,11.15,5.14-.86,3.43-7.29,4.29-3,5.57-3,6.43,1.29,6.43-.86,3.43-.86,7.72-2.57,7.72,0,14.15-3.43,10.72,2.57,6.43-3.43-.86-1.71,3-3.43,23.58-3,30.01,1.29-3,9.43-2.57,12,2.57,0-3.43,2.57-12.43,4.29-10.29,4.29,10.72,7.72,7.72,7.29-9-5.57-11.15-4.29-3.43,1.29-1.71,3.86l1.71,2.57s-6-3.43-7.72-2.57.86,5.57.86,5.57c0,0-6-1.29-6,1.71s-6,.86-7.29-1.29-8.15-6.43-7.29-4.29,3,5.57,3,5.57c0,0-16.72,8.57-15.86,11.15s-2.14-2.14-5.57.43-4.29,3.43-6,3.43-7.29-3.43-9.86-3.43-4.72-3-9-.86-12.43,3-11.15,7.72-15.86-17.15-12.43-30.44Z"/>
      <path class="cls-54" d="m176.01,99.03c-4.61,4.61,165.82-70.81,182.8-69s35.4-5.78,48.41,5.78c-1.45,3.25-13.01,6.14-17.34,5.06-5.06,2.53-15.53,2.89-22.4,2.17-6.5,2.17-41.91,7.59-41.91,7.59,0,0,36.49-3.25,36.49-1.81s-8.67,10.12-11.92,10.84-48.41-3.25-59.97,1.08,49.49,1.45,51.3,1.45c-2.53,3.61-17.7,8.31-17.7,8.31,0,0-29.62-.72-32.88,1.45s28.9-.36,27.46.72-15.9,9.39-15.9,9.39c0,0-27.82,3.97-30.71,1.08s-1.45-14.09,3.25-17.34-7.95,10.84-11.2,10.84-15.9,2.17-22.4,5.06c4.7,2.17,14.09,1.08,16.98,1.45s3.97-.72,2.89.36-5.78,2.17-6.14,4.34,35.77-2.53,37.21-2.17-10.48,6.5-13.37,6.5-30.71-2.17-32.15-1.08,19.87,3.25,22.76,3.61c.36,2.53-13.01,7.95-17.7,8.31s-29.99-1.81-32.15-5.42c-5.06,1.08-6.14.36-5.06,1.08s14.81,6.5,27.1,6.14c.36.72-2.89,2.17-4.7,2.17s-12.64-2.53-16.62-1.08,9.75,4.7,9.75,6.86-28.9,6.86-30.35,6.86c-3.25-1.08-19.51-7.95-18.06-7.95s5.78-8.67,16.62-13.01,25.65-8.31,28.18-9.75-41.19,11.92-48.41,16.26c-7.23,2.17-11.92,2.89-11.92,1.08s10.12-7.59,9.75-7.23Z"/>
      <path class="cls-52" d="m215.49,130.29c-5.98.4,6.62-6.95,10.92-6.95s24.49-3.64,24.49-7.61,12.24-2.32,16.55-.99,32.1,11.25,37.4,14.23,15.22,11.25,30.78-8.94,68.17-56.26,75.12-80.42c.33,7.94-76.78,91.67-89.69,94.98s-16.22-5.3-26.14-5.63-13.9-2.65-22.84-1.65-51.63,2.65-56.59,2.98Z"/>
      <path class="cls-53" d="m262.82,111.76c-4.3.21,12.58,0,11.25-2.65s21.51,2.65,25.15,3.31,18.53,6.62,18.53,6.62c0,0-6.95,10.26-10.59,9.27s-37.73-16.88-44.35-16.55Z"/>
      <path class="cls-57" d="m281.02,105.47c-2.83,1.13,21.51-4.3,21.84-7.94s33.76,7.28,33.76,8.94-11.58,9.93-13.9,11.25-36.73-14.23-41.7-12.24Z"/>
      <path class="cls-55" d="m308.11,92.81c-2.28-.51,8.44-1.53,10.74-3.83s6.9-1.92,6.52-3.45-1.15-1.15-.38-1.53c.61-.3,18.78,3.24,26.69,5.3,2.07.54,3.44.98,3.6,1.22.77,1.15-2.68-.77-3.45,1.53s-10.35,14.96-11.5,13.04-28.76-11.5-32.21-12.27Z"/>
      <path class="cls-56" d="m329.97,81.69c-1.92.38,12.65-7.29,13.81-9.2s22.62,2.3,23.78,4.22-7.29,11.12-9.59,11.12-26.08-6.52-27.99-6.14Z"/>
      <path class="cls-50" d="m348.37,69.8c4.6-1.53,11.89-8.44,16.11-8.82s16.49,1.53,17.26,2.68-9.2,11.89-9.2,11.89l-24.16-5.75Z"/>
      <path class="cls-51" d="m366.78,59.06c1.53,0,5.37-3.83,6.9-4.6s4.99-4.99,7.29-4.99,3.83-2.3,6.9-3.45,7.29-4.99,9.59-4.99,15.91-4.85,12.94-2.62c-2.97,2.23-27.51,27.16-27.51,24.09s-16.11-3.45-16.11-3.45Z"/>
      <path class="cls-48" d="m153.46,71.41c.09-.38,1.48-1.5,3.81-3.16,14.61-10.39,66.28-41.71,68.66-41.71,2.76,0-1.04,2.07-1.38,4.49s-62.81,37.27-64.19,38.31-6.9,2.07-6.9,2.07Z"/>
      <path class="cls-47" d="m136.21,69c-3.11-2.76-37.62-33.13-39.69-34.86s-6.9-9.32-13.11-7.59c-6.21,1.73,4.83,5.18,7.25,7.59,1.54,1.54,43.49,33.48,44.18,37.27s1.38-2.42,1.38-2.42Z"/>
      <path class="cls-61" d="m49.05,135.81c-6.5,2.95-13,1.77-10.64,6.5s12.41,12.41,13,17.14,7.09-.59,8.27,4.14.59,15.96,5.91,17.73,9.46-8.27,11.23-5.32,5.91,3.55,9.46,3.55,6.5-8.27,3.55-7.09c-2.95,1.18-8.86-1.18-11.82-2.36s6.5-8.27,8.27-13-5.91,2.95-6.5,1.18-1.77-8.27.59-14.18-8.86,5.91-8.86,5.91c0,0,4.73-4.14,0-4.73s-15.37-1.18-13-4.73,2.36-2.36-1.77-4.14-7.68-.59-7.68-.59Z"/>
      <path class="cls-46" d="m92.19,155.9c-5.32.59-17.73,9.46-17.73,14.77s6.5-.59,9.46,2.36,7.68,6.5,8.27,2.95,0-20.09,0-20.09Z"/>
      <path class="cls-32" d="m7.22,48.48c7.41.1,4.14,6.5,12.41,6.5s15.96,1.18,15.96,1.18l-14.18,3.55s1.77,6.5,4.14,6.5,29.55-4.14,27.78-2.36-12.41,5.32-18.91,5.32-8.86-2.36-6.5,0,.59,7.09,5.32,7.09,15.37-1.77,17.14,0-12.41,1.77-12.41,3.55,1.18,7.09,2.95,7.09,13.84,2.66,15.96-2.36c1.16-2.74.8-4.52,2.59-4.52s.18.54-.36-1.96-2.86-10.71-2.14-10,3.21,9.46,4.64,9.64,5.36,2.68,6.78,2.86,6.96,3.04,5.71,3.75-5.18-2.68-7.86-1.96-5.18,1.07-5.18,2.68-2.68,2.86-5.71,2.86-13.57,1.07-11.78,1.61,3.93,1.07,4.11,3.39-.89,2.68,1.61,2.32,5.54-1.25,9.11-1.79,3.04-2.86,5-2.68,4.29-.18,3.57,1.25-5.36,3.39-7.5,3.39-6.07,1.25-6.07,1.25c0,0,4.29,6.43,6.07,7.32s7.32-3.21,8.93-3.39,7.14-1.96,7.86-3.04-2.32-1.79-1.96-2.5,1.79,1.43,4.11.89,4.29-.18,4.29.36-12.14,7.32-17.85,7.32c-.36,2.86-.71,3.04.54,3.04s8.39-2.68,10.53-2.32c.36,1.07-9.64,1.96-9.64,4.64s6.07.71,7.32,2.14,10.71,2.14,10.89,3.21-1.43,4.29,2.14,5.54,8.93,0,9.28.89,5.71-2.5,5.89-3.57,2.86-9.64,2.14-10.89c-1.43,1.79-4.46,5.89-5.36,5.18s3.57-3.75,3.21-5.36-1.07-8.57-7.86-8.57-10.53-.71-8.57-1.25,7.14-1.61,5.54-2.5-52.85-46.07-54.28-47.32-11.96-7.32-15.18-7.32-13.93,3.19-14.2,9.36Z"/>
      <path class="cls-62" d="m16.01,37.22c10.43-2.9,16.8-6.37,45.76,17.95s51.11,31.64,51.11,35.2-3.78,10.66-3.78,8.22-11.55-13.55-15.99-16.21-24.21-17.99-28.2-20.88-19.77-14.44-23.54-16.88-10.03-6.22-13.1-6.88-12.25-.52-12.25-.52Z"/>
      <path class="cls-60" d="m162.79,54.97c-.53,3.71-8.47,15.36-6.88,20.12s7.47,23.73,10.06,19.59c5.3-8.47-1.06-8.47,0-13.77s0-13.24.53-16.42-3.71-9.53-3.71-9.53Z"/>
      <g>
        <path class="cls-36" d="m28.25,125.65c3.16,5.8,2.11,9.48,6.85,7.9s8.43-5.27,11.59-5.27,34.25,2.11,33.19-1.05-23.18-15.28-26.34-16.86c-3.16-1.58-25.29,15.28-25.29,15.28Z"/>
        <path class="cls-39" d="m20.95,112.74c3.52-2.07,17.99-12.61,18.61-12.2s5.58,7.65,6.82,7.86-17.99,12.82-18.82,13.65-6.62-9.31-6.62-9.31Z"/>
        <path class="cls-41" d="m18.67,109.63c-.68,2.73-7.24-10.75-4.96-10.75s16.54-8.27,16.75-7.65,4.55,6.62,6,7.03-17.37,9.72-17.78,11.37Z"/>
        <path class="cls-40" d="m10.19,87.09c0,2.07,1.03,8.69,2.69,9.31s9.1-4.55,9.72-4.55,7.24-1.03,7.03-2.27-3.1-9.31-4.76-8.69-14.68,6.2-14.68,6.2Z"/>
        <path class="cls-38" d="m10.19,75.31c0,2.48.21,8.89.83,8.89s9.93-3.93,11.37-4.14-1.65-2.69-1.65-4.34.62-5.79-1.45-4.76-9.1,4.34-9.1,4.34Z"/>
        <path class="cls-37" d="m7.51,50.08c0,3.52,1.03,19.85,2.48,20.68s3.31.41,5.38.21,4.34-1.24,3.52-3.1-2.69-1.24-3.31-5.79-1.24-7.65-2.9-8.69-5.17-3.31-5.17-3.31Z"/>
        <path class="cls-35" d="m30.02,138.1c-3.03-2.6-27.25-38.49-25.52-52.34s2.16-16.44,1.73-18.17-5.14,18.25-4.76,22.06c.48,4.77,6.92,26.38,14.71,35.47s12.55,14.66,12.55,14.66l1.29-1.68Z"/>
      </g>
      <path class="cls-59" d="m105.43,96.4c-2.9-1.09-7.99-6.9-10.53-6.9s-9.08-1.09-11.98-5.45c-2.9-4.36-41.76-38.85-48.65-41.03s-14.16-3.99-14.16-3.99c4.36,2.54,34.13,22.51,39.58,27.59s17.07,18.15,21.42,20.7c4.36,2.54,7.26,5.08,10.17,5.08s7.62,6.54,10.53,6.9,3.63-2.9,3.63-2.9Z"/>
      <g>
        <path class="cls-34" d="m102.91,242.05c-5.39.54-9.16,3.77-4.85,8.08,4.31,4.31,10.78,4.31,9.16-.54s4.31-5.39,4.31-5.39l-8.62-2.16Z"/>
        <path class="cls-33" d="m105.07,220.5c-2.16,5.93-.24,14.35,4.73,13.91,4.97-.44,12.07-11.64,7.44-11.16-4.63.48-12.17-2.75-12.17-2.75Z"/>
        <path class="cls-4" d="m112.61,197.87c-5.39,6.47-6.43,7.21.29,9.26,6.72,2.05,12.1,4.21,12.1-.1s-2.69-12.39-4.85-11.85-7.54,2.69-7.54,2.69Z"/>
        <path class="cls-5" d="m120.34,173.34c-1.8,9.44-6.65,7.29-1.8,9.44,4.85,2.16,14.01,8.08,18.32,4.85s3.25-11.28,2.7-9.95-19.22-4.34-19.22-4.34Z"/>
      </g>
      <path class="cls-19" d="m104.96,261.99c5.72-1.43,3.57-5.72,8.58-10.72s14.3-8.58,13.58-14.3,3.57-7.15,7.86-14.3-3.57-18.58,3.57-24.3,12.15-27.88,15.01-22.87-5,37.17-7.86,37.88-2.14,9.29-6.43,15.72-10.01,19.3-14.3,20.73-4.29,10.01-10.01,11.44-10.01.71-10.01.71Z"/>
      <g>
        <path class="cls-21" d="m92.93,175.11c-3.36,6.55-4.06,12.77-.37,11.99s17.28-13.25,9.84-13.92c-7.43-.67-9.47,1.93-9.47,1.93Z"/>
        <path class="cls-20" d="m102.54,193.1c-1.25,5.55-2.64,9.72-1.25,8.67s4.99-5.93,4.99-5.93l-3.74-2.74Z"/>
        <path class="cls-26" d="m90.17,207.33c2.64,1.81.05-8.14.89-7.37s-6.45,3.55-.89,7.37Z"/>
        <path class="cls-17" d="m84.63,262.82c-1.75,4.97-8.7,26.16-7.31,27.2s28-84.07,24.77-82.86c-3.23,1.21-8.44,16.5-9.48,20.32s-7.97,35.33-7.97,35.33Z"/>
      </g>
      <g>
        <path class="cls-18" d="m155.41,72.45c-.94,1.91.84,7.1,4.6,7.52,3.76.42-.84-4.6,0-7.94s-3.45-1.93-4.6.42Z"/>
        <path class="cls-22" d="m127.62,82.77c.59-.59.4-3.17,2.38-4.36s3.96-5.75,5.35-6.74,3.37-6.14,3.77-5.15,2.97,4.16,1.78,6.14-8.13,9.71-8.92,9.91-2.97-.4-2.97,1.59,0,4.95.99,4.56,2.38-.59,2.38-.59c0,0-3.37,2.38-2.97,4.36s-.2,7.93.2,11.1,6.34,31.11,9.91,34.48,3.77,13.28,7.13,13.48c3.37.2,7.33-3.77,4.76-5.95s-6.94-11.3-6.94-15.06-.79-12.88-.2-17.04,1.39-5.15.4-7.93-2.58-6.34-1.19-6.74.2-6.74,2.18-6.94,4.56-2.77,4.56-1.39-2.58-.4-2.38,4.16-.4,9.51-.4,13.28,1.19,9.31.4,11.89,2.58,7.53,2.58,11.3,0,12.49,1.39,12.29,5.15,3.17,5.15.2-1.59-9.31-.2-10.31.2-6.34.2-7.93-2.18-2.97-1.78-6.14,1.98-16.65.59-20.81-4.56-4.76-3.77-8.52-2.77-5.75-2.77-10.31-2.97-4.95-1.19-4.95,1.39-3.57,2.38-3.77-1.78-1.98,0-3.57,2.18-4.95,4.76-6.14,4.36-6.34,2.77-6.54-3.96-2.18-6.74.59c-2.77,2.77-4.56,5.15-6.34,5.15s-7.35,2.16-8.73,4.25-4.55,3.87-6.14,7.24-10.5,17.64-12.29,18.03-3.96-.4-3.96,2.97-3.37,5.55-5.55,11.1-5.55,15.46-5.55,18.23,0,9.71-1.19,12.29-4.76,5.75-3.96,9.91,2.38,1.78,2.77,3.17,1.39-6.74,2.38-7.73,2.77-4.16,4.36-7.33,1.98-8.52,1.98-8.52c0,0,3.96-12.88,4.95-15.46s4.36-15.26,6.54-16.05,3.17-.4,2.38,2.97-7.73,19.82-7.73,24.57.4,9.71-.79,8.72-2.97,3.57-3.17,4.56-1.39,6.14-3.17,6.54-3.77,1.39-4.56,3.77,0,7.73-1.59,8.92-4.95,4.36-4.95,5.55.99,5.55,1.59,3.57,6.34-5.95,8.52-5.75,4.95,2.38,6.14-1.19,2.18-8.32,1.98-10.5.2-8.32,1.19-5.75,0,13.48.99,15.85,8.92,2.38,10.11,4.56,4.76-1.98,3.57-3.17-5.75-.2-5.75-2.58.4-3.57,2.97-1.98,4.56-.59,1.78-4.16-6.54-3.96-4.95-5.35,3.77-2.18,2.38-4.16-4.36-10.31-5.55-9.51,1.39-.2,1.78-3.37,3.96-11.89,3.37-15.06-1.19-18.23.2-18.23.4-8.52.4-8.52Z"/>
        <path class="cls-23" d="m121.61,174.12c1.86-4.34,1.86-5.27,4.03-5.27s.62-6.2,2.79-6.82,10.54.93,14.26,5.27,7.75,6.2,8.06,8.37-6.82,2.79-9.92,2.79-11.16-3.41-13.02-3.41-6.2-.93-6.2-.93Z"/>
        <path class="cls-9" d="m112.93,195.2c.62-3.72,3.72-3.1,4.34-4.96s-1.24-4.65.62-4.65,13.64.31,13.64,1.86.62,6.82-.93,8.37.62,4.65-1.86,4.34-6.82,2.48-8.99,0-6.82-4.96-6.82-4.96Z"/>
        <path class="cls-13" d="m107.97,210.39c.93,2.17-1.55,3.72-.31,6.82s1.55,5.89,3.72,5.89,7.13,3.1,7.13.93,3.1-8.99,1.24-10.54-2.79-5.58-5.58-5.58-6.2,2.48-6.2,2.48Z"/>
        <path class="cls-11" d="m102.08,236.42c.31-2.79,2.48-8.68,3.1-7.13s5.89,2.79,5.89,5.89.93,7.13-2.17,7.13-6.82-5.89-6.82-5.89Z"/>
        <path class="cls-10" d="m104.56,174.12c1.55,0,3.1-.93,3.72-3.41s1.55-6.82,0-4.96-3.72,8.37-3.72,8.37Z"/>
        <path class="cls-25" d="m112.31,173.81c-1.55-.1,3.1-8.68,3.1-7.44s1.55,7.75-3.1,7.44Z"/>
        <path class="cls-24" d="m105.64,194.25c-.5-1.75-1.25-2.37-1.25-4.49s4.99-3.24,4.99-3.99.12,5.61-.62,6.36-3.12,2.12-3.12,2.12Z"/>
        <path class="cls-15" d="m99.9,197.24c0-2.62,1.62-4.86,2-5.74s1.37-2.62.37-2.74-2.62-.62-2.87.37-1.5,3.37-1.12,4.74,1.62,3.37,1.62,3.37Z"/>
        <path class="cls-14" d="m89.05,194c-.91-1.37.87,4.37,1.37,4.37s.62-2.25,1.87-3.49,3.49-.87,3.49-2.49,0-2.12-.25-3.24.75-3.12.87-3.49,0-1.25-1.37-1.5-2.62-.87-3.99.37-1.75,9.85-2,9.48Z"/>
        <path class="cls-12" d="m94.94,173.17c2.9,0,5.19,1.37,4.43-.92s1.53-3.06,1.07-4.58-.61-2.75-1.83-3.67-3.67,9.17-3.67,9.17Z"/>
        <path class="cls-16" d="m77.25,260.37c2.32,0,7.37,3.37,6.74.84s-1.9-6.53-4.21-4.84-2.53,4-2.53,4Z"/>
        <path class="cls-8" d="m86.09,260.58c0-.63.63-5.05,0-3.37s-2.11,4-2.11,4l2.11-.63Z"/>
        <path class="cls-27" d="m84.46,252.23c-1.5,0-2.89,1.62-2.77,0s2.89-7.16,2.89-6.12-.12,6.12-.12,6.12Z"/>
        <path class="cls-28" d="m90.24,250.96c-1.39,0-2.08-.46-2.08-.46l1.39-2.31.69,2.77Z"/>
        <path class="cls-30" d="m87.35,240.91c-1.39,0-3.12,1.04-3.12-.46s5.54-12.82,5.31-9.82-2.19,10.28-2.19,10.28Z"/>
        <path class="cls-29" d="m93.24,240.57c-2.19.12-1.62-3.93-1.62-3.93l1.62,3.93Z"/>
        <path class="cls-6" d="m93.36,230.17c0-1.04,3.47-.69,3.47-.69,0,0-.58,1.85-1.62,1.96s-1.85-1.27-1.85-1.27Z"/>
        <path class="cls-7" d="m98.67,221.97c-1.73-.35-2.43-.69-2.43-1.39s2.66-6.7,3.58-8.32,1.62-6.7,1.62-6.7c0,0,.81,10.05.81,11.21s-3.58,5.2-3.58,5.2Z"/>
        <path class="cls-2" d="m90.81,219.77c-3.58-.46-5.43.69-4.62-1.16s2.89-3.35,2.89-4.27.81-2.54.35-3.58-2.08-1.04-2.08-2.66v-1.62s-4.51,13.75-3.7,13.63,7.16-.35,7.16-.35Z"/>
        <path class="cls-3" d="m90.27,292.64c-1.5-1.28-17.96.64-18.17-2.14s18.17,2.14,18.17,2.14Z"/>
        <path class="cls-31" d="m73.07,304.87c-.21-7.05.74-22.91.53-26.12s2.14-8.34,1.92-12.4-1.71-14.11.86-16.89.21-6.84,1.28-11.12,5.78-17.43,5.99-18.23-10.58,84.75-10.58,84.75Z"/>
      </g>
    </g>
  </g>
</svg>