<svg width="508" height="103" viewBox="0 0 508 103" fill="none" xmlns="http://www.w3.org/2000/svg">
<g clip-path="url(#clip0_35_237)">
<path d="M398.362 0.527245C367.616 0.527245 350.048 14.2142 339.56 22.3968C332.09 28.2175 331.404 28.6603 326.181 28.6603C320.958 28.6603 320.272 28.2175 312.802 22.3968C302.304 14.2142 284.746 0.527245 254 0.527245C223.254 0.527245 205.696 14.2142 195.198 22.3968C187.728 28.2175 187.042 28.6603 181.819 28.6603C176.596 28.6603 175.91 28.2175 168.44 22.3968C157.942 14.2142 140.384 0.527245 109.638 0.527245C78.8916 0.527245 61.3344 14.2142 50.8359 22.3968C43.3656 28.2175 42.6798 28.6603 37.4569 28.6603C17.0614 28.6603 0.527561 45.1838 0.527561 65.5666C0.527561 85.9493 17.0614 102.473 37.4569 102.473C68.2032 102.473 85.7605 88.7858 96.259 80.6032C103.729 74.7826 104.415 74.3397 109.638 74.3397C114.861 74.3397 115.547 74.7826 123.017 80.6032C133.505 88.7858 151.073 102.473 181.808 102.473C212.544 102.473 230.112 88.7858 240.61 80.6032C248.081 74.7826 248.767 74.3397 253.989 74.3397C259.212 74.3397 259.898 74.7826 267.368 80.6032C277.867 88.7858 295.424 102.473 326.171 102.473C356.917 102.473 374.485 88.7858 384.973 80.6032C392.443 74.7826 393.129 74.3397 398.352 74.3397C403.574 74.3397 404.26 74.7826 411.731 80.6032C422.229 88.7858 439.786 102.473 470.533 102.473C490.928 102.473 507.462 85.9493 507.462 65.5666C507.462 45.1838 490.928 28.6603 470.533 28.6603C465.31 28.6603 464.613 28.2175 457.154 22.3968C446.655 14.2142 429.098 0.527245 398.352 0.527245H398.362Z" fill="#2F2F2F" stroke="white" stroke-width="4" stroke-miterlimit="10"/>
</g>
<defs>
<clipPath id="clip0_35_237">
<rect width="508" height="103" transform="matrix(1 0 0 -1 0 103)" fill="white"/>
</clipPath>
</defs>
</svg>
