<svg width="511" height="106" viewBox="0 0 511 106" fill="none" xmlns="http://www.w3.org/2000/svg">
<path id="Vector" d="M399.835 2.00002C369.088 2.00002 351.52 15.687 341.032 23.8696C333.562 29.6902 332.876 30.1331 327.654 30.1331C322.431 30.1331 321.745 29.6902 314.275 23.8696C303.776 15.687 286.219 2.00002 255.472 2.00002C224.726 2.00002 207.169 15.687 196.67 23.8696C189.2 29.6902 188.514 30.1331 183.291 30.1331C178.069 30.1331 177.383 29.6902 169.912 23.8696C159.414 15.687 141.857 2.00002 111.11 2.00002C80.3641 2.00002 62.8068 15.687 52.3083 23.8696C44.838 29.6902 44.1522 30.1331 38.9293 30.1331C18.5338 30.1331 2 46.6566 2 67.0393C2 87.4221 18.5338 103.946 38.9293 103.946C69.6757 103.946 87.2329 90.2586 97.7314 82.076C105.202 76.2553 105.888 75.8125 111.11 75.8125C116.333 75.8125 117.019 76.2553 124.489 82.076C134.977 90.2586 152.545 103.946 183.281 103.946C214.017 103.946 231.584 90.2586 242.083 82.076C249.553 76.2553 250.239 75.8125 255.462 75.8125C260.685 75.8125 261.371 76.2553 268.841 82.076C279.339 90.2586 296.897 103.946 327.643 103.946C358.389 103.946 375.957 90.2586 386.445 82.076C393.915 76.2553 394.601 75.8125 399.824 75.8125C405.047 75.8125 405.733 76.2553 413.203 82.076C423.701 90.2586 441.259 103.946 472.005 103.946C492.401 103.946 508.934 87.4221 508.934 67.0393C508.934 46.6566 492.401 30.1331 472.005 30.1331C466.782 30.1331 466.086 29.6902 458.626 23.8696C448.128 15.687 430.57 2.00002 399.824 2.00002H399.835Z" fill="#2F2F2F" stroke="white" stroke-width="4" stroke-miterlimit="10"/>
</svg>
